{
  "source": "C:\\Users\\Peter\\Desktop\\stuff\\MIUN\\quantitative_research\\video_compression\\videos\\BVI-HD\\BVI-HD_CDVL_videos\\ORIG\\Grass_1920x1080_60fps.mp4",
  "output": "C:\\Users\\Peter\\Desktop\\stuff\\MIUN\\quantitative_research\\video_compression\\compressed_videos\\BVI-HD\\hevc\\4\\Grass_1920x1080_60fps_hevc.mp4",
  "codec": "hevc",
  "ok": "Input #0, mov,mp4,m4a,3gp,3g2,mj2, from 'C:\\Users\\Peter\\Desktop\\stuff\\MIUN\\quantitative_research\\video_compression\\videos\\BVI-HD\\BVI-HD_CDVL_videos\\ORIG\\Grass_1920x1080_60fps.mp4':\n  Metadata:\n    major_brand     : isom\n    minor_version   : 512\n    compatible_brands: isomiso2avc1mp41\n    encoder         : Lavf54.28.101\n  Duration: 00:00:05.00, start: 0.000000, bitrate: 655968 kb/s\n  Stream #0:0[0x1](und): Video: h264 (High 4:4:4 Predictive) (avc1 / 0x31637661), yuv420p(progressive), 1920x1080, 655963 kb/s, 60 fps, 60 tbr, 60 tbn (default)\n    Metadata:\n      handler_name    : VideoHandler\n      vendor_id       : [0][0][0][0]\n[out#0/mp4 @ 0000026ba5ebf040] Codec AVOption b:a (set bitrate (in bits/s)) has not been used for any stream. The most likely reason is either wrong type (e.g. a video option with no video streams) or that it is a private option of some decoder which was not actually used for any stream.\nStream mapping:\n  Stream #0:0 -> #0:0 (h264 (native) -> hevc (libx265))\nPress [q] to stop, [?] for help\n[libx265 @ 0000026ba50bc500] Unknown option: \"aq-mode.\nx265 [info]: HEVC encoder version 4.1+190-8f11c33ac\nx265 [info]: build info [Windows][GCC 15.1.0][64 bit] 10bit\nx265 [info]: using cpu capabilities: MMX2 SSE2Fast LZCNT SSSE3 SSE4.2 AVX FMA3 BMI2 AVX2\nx265 [info]: Main 10 profile, Level-4.1 (Main tier)\nx265 [info]: Thread pool created using 12 threads\nx265 [info]: Slices                              : 1\nx265 [info]: frame threads / pool features       : 3 / wpp(17 rows)\nx265 [info]: Coding QT: max CU size, min CU size : 64 / 8\nx265 [info]: Residual QT: max TU size, max depth : 32 / 1 inter / 1 intra\nx265 [info]: ME / range / subpel / merge         : star / 57 / 3 / 3\nx265 [info]: Keyframe min / max / scenecut / bias  : 25 / 250 / 40 / 5.00 \nx265 [info]: Lookahead / bframes / badapt        : 25 / 4 / 2\nx265 [info]: b-pyramid / weightp / weightb       : 1 / 1 / 0\nx265 [info]: References / ref-limit  cu / depth  : 4 / on / on\nx265 [info]: AQ: mode / str / qg-size / cu-tree  : 2 / 1.0 / 32 / 1\nx265 [info]: Rate Control / qCompress            : ABR-4000 kbps / 0.60\nx265 [info]: VBV/HRD buffer / max-rate / init    : 4000 / 4000 / 0.750\nx265 [info]: tools: rect limit-modes rd=4 psy-rd=2.00 rdoq=2 psy-rdoq=1.00\nx265 [info]: tools: rskip mode=1 signhide tmvp strong-intra-smoothing lslices=4\nx265 [info]: tools: deblock sao dhdr10-info\nOutput #0, mp4, to 'C:\\Users\\Peter\\Desktop\\stuff\\MIUN\\quantitative_research\\video_compression\\compressed_videos\\BVI-HD\\hevc\\4\\Grass_1920x1080_60fps_hevc.mp4':\n  Metadata:\n    major_brand     : isom\n    minor_version   : 512\n    compatible_brands: isomiso2avc1mp41\n    encoder         : Lavf62.3.100\n  Stream #0:0(und): Video: hevc (hev1 / 0x31766568), yuv420p10le(tv, progressive), 1920x1080, q=2-31, 4000 kb/s, 60 fps, 15360 tbn (default)\n    Metadata:\n      encoder         : Lavc62.11.100 libx265\n      handler_name    : VideoHandler\n      vendor_id       : [0][0][0][0]\n    Side data:\n      cpb: bitrate max/min/avg: 4000000/0/4000000 buffer size: 4000000 vbv_delay: N/A\nframe=    0 fps=0.0 q=0.0 size=       0KiB time=N/A bitrate=N/A speed=N/A elapsed=0:00:01.07    \nframe=    0 fps=0.0 q=0.0 size=       0KiB time=N/A bitrate=N/A speed=N/A elapsed=0:00:01.60    \nframe=    0 fps=0.0 q=0.0 size=       0KiB time=N/A bitrate=N/A speed=N/A elapsed=0:00:02.12    \nframe=    0 fps=0.0 q=0.0 size=       0KiB time=N/A bitrate=N/A speed=N/A elapsed=0:00:02.66    \nframe=    0 fps=0.0 q=0.0 size=       0KiB time=N/A bitrate=N/A speed=N/A elapsed=0:00:03.18    \nframe=    0 fps=0.0 q=0.0 size=       0KiB time=N/A bitrate=N/A speed=N/A elapsed=0:00:03.70    \nframe=    0 fps=0.0 q=0.0 size=       0KiB time=N/A bitrate=N/A speed=N/A elapsed=0:00:04.22    \nframe=    0 fps=0.0 q=0.0 size=       0KiB time=N/A bitrate=N/A speed=N/A elapsed=0:00:04.75    \nframe=    0 fps=0.0 q=0.0 size=       0KiB time=N/A bitrate=N/A speed=N/A elapsed=0:00:05.31    \nframe=    0 fps=0.0 q=0.0 size=       0KiB time=N/A bitrate=N/A speed=N/A elapsed=0:00:05.85    \nframe=    0 fps=0.0 q=0.0 size=       0KiB time=N/A bitrate=N/A speed=N/A elapsed=0:00:06.37    \nframe=    0 fps=0.0 q=0.0 size=       0KiB time=N/A bitrate=N/A speed=N/A elapsed=0:00:06.88    \nframe=    0 fps=0.0 q=0.0 size=       0KiB time=N/A bitrate=N/A speed=N/A elapsed=0:00:07.44    \nframe=    0 fps=0.0 q=0.0 size=       0KiB time=N/A bitrate=N/A speed=N/A elapsed=0:00:07.98    \nframe=    0 fps=0.0 q=0.0 size=       0KiB time=N/A bitrate=N/A speed=N/A elapsed=0:00:08.51    \nframe=    0 fps=0.0 q=0.0 size=       0KiB time=N/A bitrate=N/A speed=N/A elapsed=0:00:09.08    \nframe=    0 fps=0.0 q=0.0 size=       0KiB time=N/A bitrate=N/A speed=N/A elapsed=0:00:09.63    \nframe=    0 fps=0.0 q=0.0 size=       0KiB time=N/A bitrate=N/A speed=N/A elapsed=0:00:10.18    \nframe=    0 fps=0.0 q=0.0 size=       0KiB time=N/A bitrate=N/A speed=N/A elapsed=0:00:10.75    \nframe=    0 fps=0.0 q=0.0 size=       0KiB time=N/A bitrate=N/A speed=N/A elapsed=0:00:11.30    \nframe=    0 fps=0.0 q=0.0 size=       0KiB time=N/A bitrate=N/A speed=N/A elapsed=0:00:11.82    \nframe=    0 fps=0.0 q=0.0 size=       0KiB time=N/A bitrate=N/A speed=N/A elapsed=0:00:12.34    \nframe=    0 fps=0.0 q=0.0 size=       0KiB time=N/A bitrate=N/A speed=N/A elapsed=0:00:12.88    \nframe=    0 fps=0.0 q=0.0 size=       0KiB time=N/A bitrate=N/A speed=N/A elapsed=0:00:13.44    \nframe=    1 fps=0.1 q=37.9 size=       0KiB time=-00:00:00.01 bitrate=N/A speed=N/A elapsed=0:00:13.97    \nframe=    1 fps=0.1 q=37.9 size=       0KiB time=-00:00:00.01 bitrate=N/A speed=N/A elapsed=0:00:14.52    \nframe=    3 fps=0.2 q=51.0 size=       0KiB time=00:00:00.00 bitrate=N/A speed=   0x elapsed=0:00:15.08    \nframe=    3 fps=0.2 q=51.0 size=       0KiB time=00:00:00.01 bitrate=  21.1kbits/s speed=0.00106x elapsed=0:00:15.68    \nframe=    3 fps=0.2 q=51.0 size=       0KiB time=00:00:00.01 bitrate=  21.1kbits/s speed=0.00103x elapsed=0:00:16.23    \nframe=    3 fps=0.2 q=51.0 size=       0KiB time=00:00:00.01 bitrate=  21.1kbits/s speed=0.00099x elapsed=0:00:16.83    \nframe=    3 fps=0.2 q=51.0 size=       0KiB time=00:00:00.01 bitrate=  21.1kbits/s speed=0.000957x elapsed=0:00:17.41    \nframe=    3 fps=0.2 q=51.0 size=       0KiB time=00:00:00.01 bitrate=  21.1kbits/s speed=0.000928x elapsed=0:00:17.96    \nframe=    3 fps=0.2 q=51.0 size=       0KiB time=00:00:00.01 bitrate=  21.1kbits/s speed=0.000899x elapsed=0:00:18.54    \nframe=    3 fps=0.2 q=51.0 size=       0KiB time=00:00:00.01 bitrate=  21.1kbits/s speed=0.000871x elapsed=0:00:19.13    \nframe=    4 fps=0.2 q=51.0 size=       0KiB time=00:00:00.03 bitrate=  10.6kbits/s speed=0.00169x elapsed=0:00:19.70    \nframe=    4 fps=0.2 q=51.0 size=       0KiB time=00:00:00.03 bitrate=  10.6kbits/s speed=0.00164x elapsed=0:00:20.26    \nframe=    4 fps=0.2 q=51.0 size=       0KiB time=00:00:00.03 bitrate=  10.6kbits/s speed=0.0016x elapsed=0:00:20.81    \nframe=    4 fps=0.2 q=51.0 size=       0KiB time=00:00:00.03 bitrate=  10.6kbits/s speed=0.00156x elapsed=0:00:21.38    \nframe=    4 fps=0.2 q=51.0 size=       0KiB time=00:00:00.03 bitrate=  10.6kbits/s speed=0.00152x elapsed=0:00:21.90    \nframe=    4 fps=0.2 q=51.0 size=       0KiB time=00:00:00.03 bitrate=  10.6kbits/s speed=0.00148x elapsed=0:00:22.47    \nframe=    4 fps=0.2 q=51.0 size=       0KiB time=00:00:00.03 bitrate=  10.6kbits/s speed=0.00145x elapsed=0:00:23.03    \nframe=    5 fps=0.2 q=51.0 size=       0KiB time=00:00:00.05 bitrate=   7.0kbits/s speed=0.00212x elapsed=0:00:23.59    \nframe=    5 fps=0.2 q=51.0 size=       0KiB time=00:00:00.05 bitrate=   7.0kbits/s speed=0.00207x elapsed=0:00:24.13    \nframe=    5 fps=0.2 q=51.0 size=       0KiB time=00:00:00.05 bitrate=   7.0kbits/s speed=0.00203x elapsed=0:00:24.66    \nframe=    7 fps=0.3 q=47.1 size=       0KiB time=00:00:00.08 bitrate=   4.2kbits/s speed=0.00331x elapsed=0:00:25.20    \nframe=    7 fps=0.3 q=47.1 size=       0KiB time=00:00:00.08 bitrate=   4.2kbits/s speed=0.00323x elapsed=0:00:25.80    \nframe=    7 fps=0.3 q=47.1 size=       0KiB time=00:00:00.08 bitrate=   4.2kbits/s speed=0.00316x elapsed=0:00:26.37    \nframe=    8 fps=0.3 q=46.9 size=       0KiB time=00:00:00.10 bitrate=   3.5kbits/s speed=0.00371x elapsed=0:00:26.96    \nframe=    8 fps=0.3 q=46.9 size=       0KiB time=00:00:00.10 bitrate=   3.5kbits/s speed=0.00363x elapsed=0:00:27.56    \nframe=    8 fps=0.3 q=46.9 size=       0KiB time=00:00:00.10 bitrate=   3.5kbits/s speed=0.00355x elapsed=0:00:28.13    \nframe=    8 fps=0.3 q=46.9 size=       0KiB time=00:00:00.10 bitrate=   3.5kbits/s speed=0.00348x elapsed=0:00:28.70    \nframe=    8 fps=0.3 q=46.9 size=       0KiB time=00:00:00.10 bitrate=   3.5kbits/s speed=0.00342x elapsed=0:00:29.28    \nframe=    8 fps=0.3 q=46.9 size=       0KiB time=00:00:00.10 bitrate=   3.5kbits/s speed=0.00335x elapsed=0:00:29.86    \nframe=    8 fps=0.3 q=46.9 size=       0KiB time=00:00:00.10 bitrate=   3.5kbits/s speed=0.00328x elapsed=0:00:30.47    \nframe=    8 fps=0.3 q=46.9 size=       0KiB time=00:00:00.10 bitrate=   3.5kbits/s speed=0.00323x elapsed=0:00:31.00    \nframe=    8 fps=0.3 q=46.9 size=       0KiB time=00:00:00.10 bitrate=   3.5kbits/s speed=0.00317x elapsed=0:00:31.53    \nframe=   10 fps=0.3 q=47.0 size=       0KiB time=00:00:00.13 bitrate=   2.6kbits/s speed=0.00416x elapsed=0:00:32.08    \nframe=   10 fps=0.3 q=47.0 size=       0KiB time=00:00:00.13 bitrate=   2.6kbits/s speed=0.00408x elapsed=0:00:32.64    \nframe=   11 fps=0.3 q=37.9 size=       0KiB time=00:00:00.15 bitrate=   2.3kbits/s speed=0.00451x elapsed=0:00:33.24    \nframe=   11 fps=0.3 q=37.9 size=       0KiB time=00:00:00.15 bitrate=   2.3kbits/s speed=0.00444x elapsed=0:00:33.76    \nframe=   11 fps=0.3 q=37.9 size=       0KiB time=00:00:00.15 bitrate=   2.3kbits/s speed=0.00436x elapsed=0:00:34.38    \nframe=   11 fps=0.3 q=37.9 size=       0KiB time=00:00:00.15 bitrate=   2.3kbits/s speed=0.0043x elapsed=0:00:34.90    \nframe=   12 fps=0.3 q=45.2 size=       0KiB time=00:00:00.16 bitrate=   2.1kbits/s speed=0.0047x elapsed=0:00:35.46    \nframe=   12 fps=0.3 q=45.2 size=       0KiB time=00:00:00.16 bitrate=   2.1kbits/s speed=0.00462x elapsed=0:00:36.10    \nframe=   12 fps=0.3 q=45.2 size=       0KiB time=00:00:00.16 bitrate=   2.1kbits/s speed=0.00454x elapsed=0:00:36.71    \nframe=   12 fps=0.3 q=45.2 size=       0KiB time=00:00:00.16 bitrate=   2.1kbits/s speed=0.00447x elapsed=0:00:37.31    \nframe=   12 fps=0.3 q=45.2 size=       0KiB time=00:00:00.16 bitrate=   2.1kbits/s speed=0.0044x elapsed=0:00:37.87    \nframe=   12 fps=0.3 q=45.2 size=       0KiB time=00:00:00.16 bitrate=   2.1kbits/s speed=0.00434x elapsed=0:00:38.44    \nframe=   12 fps=0.3 q=45.2 size=       0KiB time=00:00:00.16 bitrate=   2.1kbits/s speed=0.00428x elapsed=0:00:38.98    \nframe=   13 fps=0.3 q=47.0 size=       0KiB time=00:00:00.18 bitrate=   1.9kbits/s speed=0.00463x elapsed=0:00:39.55    \nframe=   13 fps=0.3 q=47.0 size=       0KiB time=00:00:00.18 bitrate=   1.9kbits/s speed=0.00457x elapsed=0:00:40.10    \nframe=   13 fps=0.3 q=47.0 size=       0KiB time=00:00:00.18 bitrate=   1.9kbits/s speed=0.00451x elapsed=0:00:40.65    \nframe=   13 fps=0.3 q=47.0 size=       0KiB time=00:00:00.18 bitrate=   1.9kbits/s speed=0.00445x elapsed=0:00:41.20    \nframe=   13 fps=0.3 q=47.0 size=       0KiB time=00:00:00.18 bitrate=   1.9kbits/s speed=0.00439x elapsed=0:00:41.76    \nframe=   15 fps=0.4 q=44.4 size=       0KiB time=00:00:00.21 bitrate=   1.6kbits/s speed=0.00512x elapsed=0:00:42.31    \nframe=   15 fps=0.3 q=44.4 size=       0KiB time=00:00:00.21 bitrate=   1.6kbits/s speed=0.00505x elapsed=0:00:42.88    \nframe=   15 fps=0.3 q=44.4 size=       0KiB time=00:00:00.21 bitrate=   1.6kbits/s speed=0.00499x elapsed=0:00:43.43    \nframe=   15 fps=0.3 q=44.4 size=       0KiB time=00:00:00.21 bitrate=   1.6kbits/s speed=0.00493x elapsed=0:00:43.96    \nframe=   15 fps=0.3 q=44.4 size=       0KiB time=00:00:00.21 bitrate=   1.6kbits/s speed=0.00487x elapsed=0:00:44.49    \nframe=   15 fps=0.3 q=44.4 size=       0KiB time=00:00:00.21 bitrate=   1.6kbits/s speed=0.00481x elapsed=0:00:45.04    \nframe=   15 fps=0.3 q=44.4 size=       0KiB time=00:00:00.21 bitrate=   1.6kbits/s speed=0.00475x elapsed=0:00:45.62    \nframe=   16 fps=0.3 q=46.0 size=       0KiB time=00:00:00.23 bitrate=   1.5kbits/s speed=0.00505x elapsed=0:00:46.23    \nframe=   16 fps=0.3 q=46.0 size=       0KiB time=00:00:00.23 bitrate=   1.5kbits/s speed=0.00498x elapsed=0:00:46.80    \nframe=   17 fps=0.4 q=47.0 size=       0KiB time=00:00:00.25 bitrate=   1.4kbits/s speed=0.00528x elapsed=0:00:47.35    \nframe=   17 fps=0.4 q=47.0 size=       0KiB time=00:00:00.25 bitrate=   1.4kbits/s speed=0.00522x elapsed=0:00:47.89    \nframe=   18 fps=0.4 q=38.1 size=       0KiB time=00:00:00.26 bitrate=   1.3kbits/s speed=0.0055x elapsed=0:00:48.44    \nframe=   18 fps=0.4 q=38.1 size=       0KiB time=00:00:00.26 bitrate=   1.3kbits/s speed=0.00545x elapsed=0:00:48.96    \nframe=   18 fps=0.4 q=38.1 size=       0KiB time=00:00:00.26 bitrate=   1.3kbits/s speed=0.00539x elapsed=0:00:49.50    \nframe=   19 fps=0.4 q=44.6 size=       0KiB time=00:00:00.28 bitrate=   1.2kbits/s speed=0.00566x elapsed=0:00:50.05    \nframe=   19 fps=0.4 q=44.6 size=       0KiB time=00:00:00.28 bitrate=   1.2kbits/s speed=0.00559x elapsed=0:00:50.65    \nframe=   19 fps=0.4 q=44.6 size=       0KiB time=00:00:00.28 bitrate=   1.2kbits/s speed=0.00553x elapsed=0:00:51.24    \nframe=   19 fps=0.4 q=44.6 size=       0KiB time=00:00:00.28 bitrate=   1.2kbits/s speed=0.00547x elapsed=0:00:51.78    \nframe=   19 fps=0.4 q=44.6 size=       0KiB time=00:00:00.28 bitrate=   1.2kbits/s speed=0.00541x elapsed=0:00:52.34    \nframe=   19 fps=0.4 q=44.6 size=       0KiB time=00:00:00.28 bitrate=   1.2kbits/s speed=0.00535x elapsed=0:00:52.92    \nframe=   19 fps=0.4 q=44.6 size=       0KiB time=00:00:00.28 bitrate=   1.2kbits/s speed=0.0053x elapsed=0:00:53.46    \nframe=   19 fps=0.4 q=44.6 size=       0KiB time=00:00:00.28 bitrate=   1.2kbits/s speed=0.00525x elapsed=0:00:53.99    \nframe=   19 fps=0.3 q=44.6 size=       0KiB time=00:00:00.28 bitrate=   1.2kbits/s speed=0.00519x elapsed=0:00:54.54    \nframe=   19 fps=0.3 q=44.6 size=       0KiB time=00:00:00.28 bitrate=   1.2kbits/s speed=0.00514x elapsed=0:00:55.07    \nframe=   19 fps=0.3 q=44.6 size=       0KiB time=00:00:00.28 bitrate=   1.2kbits/s speed=0.0051x elapsed=0:00:55.59    \nframe=   20 fps=0.4 q=47.0 size=       0KiB time=00:00:00.30 bitrate=   1.2kbits/s speed=0.00534x elapsed=0:00:56.14    \nframe=   20 fps=0.4 q=47.0 size=       0KiB time=00:00:00.30 bitrate=   1.2kbits/s speed=0.00529x elapsed=0:00:56.70    \nframe=   20 fps=0.3 q=47.0 size=       0KiB time=00:00:00.30 bitrate=   1.2kbits/s speed=0.00524x elapsed=0:00:57.24    \nframe=   20 fps=0.3 q=47.0 size=       0KiB time=00:00:00.30 bitrate=   1.2kbits/s speed=0.00519x elapsed=0:00:57.81    \nframe=   21 fps=0.4 q=46.0 size=       0KiB time=00:00:00.31 bitrate=   1.1kbits/s speed=0.00543x elapsed=0:00:58.36    \nframe=   22 fps=0.4 q=37.9 size=       0KiB time=00:00:00.33 bitrate=   1.1kbits/s speed=0.00566x elapsed=0:00:58.90    \nframe=   22 fps=0.4 q=37.9 size=       0KiB time=00:00:00.33 bitrate=   1.1kbits/s speed=0.00561x elapsed=0:00:59.43    \nframe=   23 fps=0.4 q=44.0 size=       0KiB time=00:00:00.35 bitrate=   1.0kbits/s speed=0.00584x elapsed=0:00:59.96    \nframe=   23 fps=0.4 q=44.0 size=       0KiB time=00:00:00.35 bitrate=   1.0kbits/s speed=0.00578x elapsed=0:01:00.53    \nframe=   23 fps=0.4 q=44.0 size=       0KiB time=00:00:00.35 bitrate=   1.0kbits/s speed=0.00573x elapsed=0:01:01.13    \nframe=   23 fps=0.4 q=44.0 size=       0KiB time=00:00:00.35 bitrate=   1.0kbits/s speed=0.00568x elapsed=0:01:01.65    \nframe=   23 fps=0.4 q=44.0 size=       0KiB time=00:00:00.35 bitrate=   1.0kbits/s speed=0.00563x elapsed=0:01:02.16    \nframe=   24 fps=0.4 q=46.0 size=       0KiB time=00:00:00.36 bitrate=   1.0kbits/s speed=0.00585x elapsed=0:01:02.69    \nframe=   25 fps=0.4 q=46.0 size=       0KiB time=00:00:00.38 bitrate=   0.9kbits/s speed=0.00606x elapsed=0:01:03.25    \nframe=   25 fps=0.4 q=46.0 size=       0KiB time=00:00:00.38 bitrate=   0.9kbits/s speed=0.00601x elapsed=0:01:03.80    \nframe=   25 fps=0.4 q=46.0 size=       0KiB time=00:00:00.38 bitrate=   0.9kbits/s speed=0.00596x elapsed=0:01:04.32    \nframe=   25 fps=0.4 q=46.0 size=       0KiB time=00:00:00.38 bitrate=   0.9kbits/s speed=0.00591x elapsed=0:01:04.83    \nframe=   25 fps=0.4 q=46.0 size=       0KiB time=00:00:00.38 bitrate=   0.9kbits/s speed=0.00587x elapsed=0:01:05.35    \nframe=   25 fps=0.4 q=46.0 size=       0KiB time=00:00:00.38 bitrate=   0.9kbits/s speed=0.00582x elapsed=0:01:05.89    \nframe=   25 fps=0.4 q=46.0 size=       0KiB time=00:00:00.38 bitrate=   0.9kbits/s speed=0.00577x elapsed=0:01:06.47    \nframe=   26 fps=0.4 q=37.8 size=       0KiB time=00:00:00.40 bitrate=   0.9kbits/s speed=0.00597x elapsed=0:01:07.01    \nframe=   26 fps=0.4 q=37.8 size=       0KiB time=00:00:00.40 bitrate=   0.9kbits/s speed=0.00592x elapsed=0:01:07.59    \nframe=   26 fps=0.4 q=37.8 size=       0KiB time=00:00:00.40 bitrate=   0.9kbits/s speed=0.00587x elapsed=0:01:08.12    \nframe=   26 fps=0.4 q=37.8 size=       0KiB time=00:00:00.40 bitrate=   0.9kbits/s speed=0.00582x elapsed=0:01:08.67    \nframe=   26 fps=0.4 q=37.8 size=       0KiB time=00:00:00.40 bitrate=   0.9kbits/s speed=0.00578x elapsed=0:01:09.20    \nframe=   26 fps=0.4 q=37.8 size=       0KiB time=00:00:00.40 bitrate=   0.9kbits/s speed=0.00573x elapsed=0:01:09.75    \nframe=   26 fps=0.4 q=37.8 size=       0KiB time=00:00:00.40 bitrate=   0.9kbits/s speed=0.00569x elapsed=0:01:10.27    \nframe=   27 fps=0.4 q=43.6 size=       0KiB time=00:00:00.41 bitrate=   0.8kbits/s speed=0.00588x elapsed=0:01:10.80    \nframe=   27 fps=0.4 q=43.6 size=       0KiB time=00:00:00.41 bitrate=   0.8kbits/s speed=0.00584x elapsed=0:01:11.37    \nframe=   28 fps=0.4 q=46.0 size=       0KiB time=00:00:00.43 bitrate=   0.8kbits/s speed=0.00602x elapsed=0:01:11.99    \nframe=   28 fps=0.4 q=46.0 size=       0KiB time=00:00:00.43 bitrate=   0.8kbits/s speed=0.00597x elapsed=0:01:12.57    \nframe=   28 fps=0.4 q=46.0 size=       0KiB time=00:00:00.43 bitrate=   0.8kbits/s speed=0.00592x elapsed=0:01:13.16    \nframe=   29 fps=0.4 q=37.8 size=       0KiB time=00:00:00.45 bitrate=   0.8kbits/s speed=0.0061x elapsed=0:01:13.78    \nframe=   29 fps=0.4 q=37.8 size=       0KiB time=00:00:00.45 bitrate=   0.8kbits/s speed=0.00604x elapsed=0:01:14.47    \nframe=   29 fps=0.4 q=37.8 size=       0KiB time=00:00:00.45 bitrate=   0.8kbits/s speed=0.00599x elapsed=0:01:15.10    \nframe=   29 fps=0.4 q=37.8 size=       0KiB time=00:00:00.45 bitrate=   0.8kbits/s speed=0.00594x elapsed=0:01:15.70    \nframe=   29 fps=0.4 q=37.8 size=       0KiB time=00:00:00.45 bitrate=   0.8kbits/s speed=0.0059x elapsed=0:01:16.28    \nframe=   30 fps=0.4 q=43.3 size=     256KiB time=00:00:00.46 bitrate=4494.6kbits/s speed=0.00607x elapsed=0:01:16.84    \nframe=   30 fps=0.4 q=43.3 size=     256KiB time=00:00:00.46 bitrate=4494.6kbits/s speed=0.00602x elapsed=0:01:17.47    \nframe=   30 fps=0.4 q=43.3 size=     256KiB time=00:00:00.46 bitrate=4494.6kbits/s speed=0.00598x elapsed=0:01:18.08    \nframe=   30 fps=0.4 q=43.3 size=     256KiB time=00:00:00.46 bitrate=4494.6kbits/s speed=0.00593x elapsed=0:01:18.69    \nframe=   30 fps=0.4 q=43.3 size=     256KiB time=00:00:00.46 bitrate=4494.6kbits/s speed=0.00589x elapsed=0:01:19.26    \nframe=   30 fps=0.4 q=43.3 size=     256KiB time=00:00:00.46 bitrate=4494.6kbits/s speed=0.00585x elapsed=0:01:19.78    \nframe=   30 fps=0.4 q=43.3 size=     256KiB time=00:00:00.46 bitrate=4494.6kbits/s speed=0.00581x elapsed=0:01:20.33    \nframe=   30 fps=0.4 q=43.3 size=     256KiB time=00:00:00.46 bitrate=4494.6kbits/s speed=0.00577x elapsed=0:01:20.90    \nframe=   30 fps=0.4 q=43.3 size=     256KiB time=00:00:00.46 bitrate=4494.6kbits/s speed=0.00573x elapsed=0:01:21.43    \nframe=   31 fps=0.4 q=45.0 size=     256KiB time=00:00:00.48 bitrate=4339.7kbits/s speed=0.00589x elapsed=0:01:21.99    \nframe=   31 fps=0.4 q=45.0 size=     256KiB time=00:00:00.48 bitrate=4339.7kbits/s speed=0.00586x elapsed=0:01:22.51    \nframe=   33 fps=0.4 q=37.5 size=     256KiB time=00:00:00.51 bitrate=4059.7kbits/s speed=0.00622x elapsed=0:01:23.04    \nframe=   33 fps=0.4 q=37.5 size=     256KiB time=00:00:00.51 bitrate=4059.7kbits/s speed=0.00618x elapsed=0:01:23.58    \nframe=   33 fps=0.4 q=37.5 size=     256KiB time=00:00:00.51 bitrate=4059.7kbits/s speed=0.00614x elapsed=0:01:24.14    \nframe=   34 fps=0.4 q=42.8 size=     256KiB time=00:00:00.53 bitrate=3932.8kbits/s speed=0.0063x elapsed=0:01:24.68    \nframe=   34 fps=0.4 q=42.8 size=     256KiB time=00:00:00.53 bitrate=3932.8kbits/s speed=0.00626x elapsed=0:01:25.20    \nframe=   34 fps=0.4 q=42.8 size=     256KiB time=00:00:00.53 bitrate=3932.8kbits/s speed=0.00622x elapsed=0:01:25.75    \nframe=   34 fps=0.4 q=42.8 size=     256KiB time=00:00:00.53 bitrate=3932.8kbits/s speed=0.00618x elapsed=0:01:26.26    \nframe=   35 fps=0.4 q=44.0 size=     256KiB time=00:00:00.55 bitrate=3813.6kbits/s speed=0.00634x elapsed=0:01:26.79    \nframe=   36 fps=0.4 q=44.0 size=     256KiB time=00:00:00.56 bitrate=3701.5kbits/s speed=0.00649x elapsed=0:01:27.31    \nframe=   37 fps=0.4 q=37.4 size=     256KiB time=00:00:00.58 bitrate=3595.7kbits/s speed=0.00664x elapsed=0:01:27.83    \nframe=   38 fps=0.4 q=42.8 size=     256KiB time=00:00:00.60 bitrate=3495.8kbits/s speed=0.00679x elapsed=0:01:28.36    \nframe=   38 fps=0.4 q=42.8 size=     256KiB time=00:00:00.60 bitrate=3495.8kbits/s speed=0.00675x elapsed=0:01:28.90    \nframe=   38 fps=0.4 q=42.8 size=     256KiB time=00:00:00.60 bitrate=3495.8kbits/s speed=0.00671x elapsed=0:01:29.41    \nframe=   38 fps=0.4 q=42.8 size=     256KiB time=00:00:00.60 bitrate=3495.8kbits/s speed=0.00667x elapsed=0:01:29.94    \nframe=   38 fps=0.4 q=42.8 size=     256KiB time=00:00:00.60 bitrate=3495.8kbits/s speed=0.00663x elapsed=0:01:30.46    \nframe=   39 fps=0.4 q=44.0 size=     256KiB time=00:00:00.61 bitrate=3401.4kbits/s speed=0.00678x elapsed=0:01:30.97    \nframe=   40 fps=0.4 q=44.0 size=     256KiB time=00:00:00.63 bitrate=3311.9kbits/s speed=0.00692x elapsed=0:01:31.53    \nframe=   40 fps=0.4 q=44.0 size=     256KiB time=00:00:00.63 bitrate=3311.9kbits/s speed=0.00688x elapsed=0:01:32.04    \nframe=   40 fps=0.4 q=44.0 size=     256KiB time=00:00:00.63 bitrate=3311.9kbits/s speed=0.00684x elapsed=0:01:32.57    \nframe=   40 fps=0.4 q=44.0 size=     256KiB time=00:00:00.63 bitrate=3311.9kbits/s speed=0.0068x elapsed=0:01:33.08    \nframe=   41 fps=0.4 q=37.1 size=     256KiB time=00:00:00.65 bitrate=3226.9kbits/s speed=0.00694x elapsed=0:01:33.61    \nframe=   41 fps=0.4 q=37.1 size=     256KiB time=00:00:00.65 bitrate=3226.9kbits/s speed=0.0069x elapsed=0:01:34.14    \nframe=   41 fps=0.4 q=37.1 size=     256KiB time=00:00:00.65 bitrate=3226.9kbits/s speed=0.00686x elapsed=0:01:34.69    \nframe=   41 fps=0.4 q=37.1 size=     256KiB time=00:00:00.65 bitrate=3226.9kbits/s speed=0.00682x elapsed=0:01:35.24    \nframe=   41 fps=0.4 q=37.1 size=     256KiB time=00:00:00.65 bitrate=3226.9kbits/s speed=0.00679x elapsed=0:01:35.79    \nframe=   42 fps=0.4 q=42.1 size=     256KiB time=00:00:00.66 bitrate=3146.3kbits/s speed=0.00692x elapsed=0:01:36.35    \nframe=   42 fps=0.4 q=42.1 size=     256KiB time=00:00:00.66 bitrate=3146.3kbits/s speed=0.00688x elapsed=0:01:36.87    \nframe=   43 fps=0.4 q=44.0 size=     256KiB time=00:00:00.68 bitrate=3069.5kbits/s speed=0.00702x elapsed=0:01:37.40    \nframe=   43 fps=0.4 q=44.0 size=     256KiB time=00:00:00.68 bitrate=3069.5kbits/s speed=0.00698x elapsed=0:01:37.91    \nframe=   44 fps=0.4 q=36.9 size=     256KiB time=00:00:00.70 bitrate=2996.4kbits/s speed=0.00711x elapsed=0:01:38.43    \nframe=   45 fps=0.5 q=42.1 size=     256KiB time=00:00:00.71 bitrate=2926.7kbits/s speed=0.00724x elapsed=0:01:38.96    \nframe=   45 fps=0.5 q=42.1 size=     256KiB time=00:00:00.71 bitrate=2926.7kbits/s speed=0.0072x elapsed=0:01:39.48    \nframe=   45 fps=0.4 q=42.1 size=     256KiB time=00:00:00.71 bitrate=2926.7kbits/s speed=0.00716x elapsed=0:01:40.02    \nframe=   45 fps=0.4 q=42.1 size=     256KiB time=00:00:00.71 bitrate=2926.7kbits/s speed=0.00713x elapsed=0:01:40.56    \nframe=   46 fps=0.5 q=43.9 size=     256KiB time=00:00:00.73 bitrate=2860.2kbits/s speed=0.00725x elapsed=0:01:41.09    \nframe=   46 fps=0.5 q=43.9 size=     256KiB time=00:00:00.73 bitrate=2860.2kbits/s speed=0.00722x elapsed=0:01:41.60    \nframe=   47 fps=0.5 q=44.0 size=     256KiB time=00:00:00.75 bitrate=2796.7kbits/s speed=0.00734x elapsed=0:01:42.12    \nframe=   47 fps=0.5 q=44.0 size=     256KiB time=00:00:00.75 bitrate=2796.7kbits/s speed=0.00731x elapsed=0:01:42.64    \nframe=   48 fps=0.5 q=37.0 size=     256KiB time=00:00:00.76 bitrate=2735.9kbits/s speed=0.00743x elapsed=0:01:43.18    \nframe=   48 fps=0.5 q=37.0 size=     256KiB time=00:00:00.76 bitrate=2735.9kbits/s speed=0.00739x elapsed=0:01:43.70    \nframe=   49 fps=0.5 q=42.0 size=     256KiB time=00:00:00.78 bitrate=2677.7kbits/s speed=0.00751x elapsed=0:01:44.25    \nframe=   49 fps=0.5 q=42.0 size=     256KiB time=00:00:00.78 bitrate=2677.7kbits/s speed=0.00748x elapsed=0:01:44.78    \nframe=   49 fps=0.5 q=42.0 size=     256KiB time=00:00:00.78 bitrate=2677.7kbits/s speed=0.00744x elapsed=0:01:45.30    \nframe=   49 fps=0.5 q=42.0 size=     256KiB time=00:00:00.78 bitrate=2677.7kbits/s speed=0.0074x elapsed=0:01:45.83    \nframe=   49 fps=0.5 q=42.0 size=     256KiB time=00:00:00.78 bitrate=2677.7kbits/s speed=0.00736x elapsed=0:01:46.39    \nframe=   50 fps=0.5 q=44.0 size=     256KiB time=00:00:00.80 bitrate=2621.9kbits/s speed=0.00748x elapsed=0:01:46.91    \nframe=   51 fps=0.5 q=44.0 size=     256KiB time=00:00:00.81 bitrate=2568.4kbits/s speed=0.0076x elapsed=0:01:47.44    \nframe=   52 fps=0.5 q=37.0 size=     256KiB time=00:00:00.83 bitrate=2517.0kbits/s speed=0.00772x elapsed=0:01:47.99    \nframe=   52 fps=0.5 q=37.0 size=     256KiB time=00:00:00.83 bitrate=2517.0kbits/s speed=0.00768x elapsed=0:01:48.52    \nframe=   52 fps=0.5 q=37.0 size=     256KiB time=00:00:00.83 bitrate=2517.0kbits/s speed=0.00764x elapsed=0:01:49.03    \nframe=   53 fps=0.5 q=42.4 size=     256KiB time=00:00:00.85 bitrate=2467.7kbits/s speed=0.00776x elapsed=0:01:49.57    \nframe=   54 fps=0.5 q=44.0 size=     256KiB time=00:00:00.86 bitrate=2420.2kbits/s speed=0.00787x elapsed=0:01:50.13    \nframe=   54 fps=0.5 q=44.0 size=     256KiB time=00:00:00.86 bitrate=2420.2kbits/s speed=0.00783x elapsed=0:01:50.69    \nframe=   55 fps=0.5 q=36.9 size=     256KiB time=00:00:00.88 bitrate=2374.5kbits/s speed=0.00794x elapsed=0:01:51.23    \nframe=   55 fps=0.5 q=36.9 size=     256KiB time=00:00:00.88 bitrate=2374.5kbits/s speed=0.0079x elapsed=0:01:51.82    \nframe=   56 fps=0.5 q=41.8 size=     256KiB time=00:00:00.90 bitrate=2330.6kbits/s speed=0.00801x elapsed=0:01:52.37    \nframe=   56 fps=0.5 q=41.8 size=     256KiB time=00:00:00.90 bitrate=2330.6kbits/s speed=0.00797x elapsed=0:01:52.92    \nframe=   56 fps=0.5 q=41.8 size=     256KiB time=00:00:00.90 bitrate=2330.6kbits/s speed=0.00793x elapsed=0:01:53.55    \nframe=   56 fps=0.5 q=41.8 size=     256KiB time=00:00:00.90 bitrate=2330.6kbits/s speed=0.00789x elapsed=0:01:54.12    \nframe=   56 fps=0.5 q=41.8 size=     256KiB time=00:00:00.90 bitrate=2330.6kbits/s speed=0.00784x elapsed=0:01:54.73    \nframe=   56 fps=0.5 q=41.8 size=     256KiB time=00:00:00.90 bitrate=2330.6kbits/s speed=0.0078x elapsed=0:01:55.36    \nframe=   56 fps=0.5 q=41.8 size=     256KiB time=00:00:00.90 bitrate=2330.6kbits/s speed=0.00776x elapsed=0:01:55.96    \nframe=   56 fps=0.5 q=41.8 size=     256KiB time=00:00:00.90 bitrate=2330.6kbits/s speed=0.00772x elapsed=0:01:56.52    \nframe=   56 fps=0.5 q=41.8 size=     256KiB time=00:00:00.90 bitrate=2330.6kbits/s speed=0.00769x elapsed=0:01:57.09    \nframe=   56 fps=0.5 q=41.8 size=     256KiB time=00:00:00.90 bitrate=2330.6kbits/s speed=0.00765x elapsed=0:01:57.62    \nframe=   56 fps=0.5 q=41.8 size=     256KiB time=00:00:00.90 bitrate=2330.6kbits/s speed=0.00762x elapsed=0:01:58.16    \nframe=   56 fps=0.5 q=41.8 size=     256KiB time=00:00:00.90 bitrate=2330.6kbits/s speed=0.00758x elapsed=0:01:58.72    \nframe=   56 fps=0.5 q=41.8 size=     256KiB time=00:00:00.90 bitrate=2330.6kbits/s speed=0.00755x elapsed=0:01:59.27    \nframe=   57 fps=0.5 q=43.1 size=     256KiB time=00:00:00.91 bitrate=2288.2kbits/s speed=0.00765x elapsed=0:01:59.81    \nframe=   57 fps=0.5 q=43.1 size=     256KiB time=00:00:00.91 bitrate=2288.2kbits/s speed=0.00761x elapsed=0:02:00.39    \nframe=   57 fps=0.5 q=43.1 size=     256KiB time=00:00:00.91 bitrate=2288.2kbits/s speed=0.00758x elapsed=0:02:00.96    \nframe=   58 fps=0.5 q=43.0 size=     256KiB time=00:00:00.93 bitrate=2247.3kbits/s speed=0.00768x elapsed=0:02:01.49    \nframe=   58 fps=0.5 q=43.0 size=     256KiB time=00:00:00.93 bitrate=2247.3kbits/s speed=0.00765x elapsed=0:02:02.03    \nframe=   59 fps=0.5 q=36.8 size=     256KiB time=00:00:00.95 bitrate=2207.9kbits/s speed=0.00775x elapsed=0:02:02.63    \nframe=   60 fps=0.5 q=42.1 size=     256KiB time=00:00:00.96 bitrate=2169.8kbits/s speed=0.00784x elapsed=0:02:03.25    \nframe=   60 fps=0.5 q=42.1 size=     256KiB time=00:00:00.96 bitrate=2169.8kbits/s speed=0.00781x elapsed=0:02:03.82    \nframe=   60 fps=0.5 q=42.1 size=     256KiB time=00:00:00.96 bitrate=2169.8kbits/s speed=0.00777x elapsed=0:02:04.36    \nframe=   60 fps=0.5 q=42.1 size=     256KiB time=00:00:00.96 bitrate=2169.8kbits/s speed=0.00774x elapsed=0:02:04.89    \nframe=   60 fps=0.5 q=42.1 size=     256KiB time=00:00:00.96 bitrate=2169.8kbits/s speed=0.00771x elapsed=0:02:05.43    \nframe=   60 fps=0.5 q=42.1 size=     256KiB time=00:00:00.96 bitrate=2169.8kbits/s speed=0.00767x elapsed=0:02:06.00    \nframe=   60 fps=0.5 q=42.1 size=     256KiB time=00:00:00.96 bitrate=2169.8kbits/s speed=0.00764x elapsed=0:02:06.55    \nframe=   60 fps=0.5 q=42.1 size=     256KiB time=00:00:00.96 bitrate=2169.8kbits/s speed=0.0076x elapsed=0:02:07.11    \nframe=   61 fps=0.5 q=43.0 size=     256KiB time=00:00:00.98 bitrate=2133.1kbits/s speed=0.0077x elapsed=0:02:07.65    \nframe=   61 fps=0.5 q=43.0 size=     256KiB time=00:00:00.98 bitrate=2133.1kbits/s speed=0.00767x elapsed=0:02:08.21    \nframe=   61 fps=0.5 q=43.0 size=     256KiB time=00:00:00.98 bitrate=2133.1kbits/s speed=0.00764x elapsed=0:02:08.76    \nframe=   61 fps=0.5 q=43.0 size=     256KiB time=00:00:00.98 bitrate=2133.1kbits/s speed=0.0076x elapsed=0:02:09.33    \nframe=   62 fps=0.5 q=42.9 size=     256KiB time=00:00:01.00 bitrate=2097.5kbits/s speed=0.0077x elapsed=0:02:09.88    \nframe=   62 fps=0.5 q=42.9 size=     256KiB time=00:00:01.00 bitrate=2097.5kbits/s speed=0.00766x elapsed=0:02:10.46    \nframe=   62 fps=0.5 q=42.9 size=     256KiB time=00:00:01.00 bitrate=2097.5kbits/s speed=0.00763x elapsed=0:02:11.08    \nframe=   62 fps=0.5 q=42.9 size=     256KiB time=00:00:01.00 bitrate=2097.5kbits/s speed=0.0076x elapsed=0:02:11.66    \nframe=   62 fps=0.5 q=42.9 size=     256KiB time=00:00:01.00 bitrate=2097.5kbits/s speed=0.00756x elapsed=0:02:12.23    \nframe=   63 fps=0.5 q=36.5 size=     256KiB time=00:00:01.01 bitrate=2063.1kbits/s speed=0.00766x elapsed=0:02:12.78    \nframe=   64 fps=0.5 q=41.3 size=     256KiB time=00:00:01.03 bitrate=2029.8kbits/s speed=0.00775x elapsed=0:02:13.30    \nframe=   64 fps=0.5 q=41.3 size=     256KiB time=00:00:01.03 bitrate=2029.8kbits/s speed=0.00772x elapsed=0:02:13.87    \nframe=   64 fps=0.5 q=41.3 size=     256KiB time=00:00:01.03 bitrate=2029.8kbits/s speed=0.00769x elapsed=0:02:14.39    \nframe=   64 fps=0.5 q=41.3 size=     256KiB time=00:00:01.03 bitrate=2029.8kbits/s speed=0.00765x elapsed=0:02:14.99    \nframe=   64 fps=0.5 q=41.3 size=     256KiB time=00:00:01.03 bitrate=2029.8kbits/s speed=0.00763x elapsed=0:02:15.50    \nframe=   64 fps=0.5 q=41.3 size=     256KiB time=00:00:01.03 bitrate=2029.8kbits/s speed=0.00759x elapsed=0:02:16.07    \nframe=   64 fps=0.5 q=41.3 size=     256KiB time=00:00:01.03 bitrate=2029.8kbits/s speed=0.00756x elapsed=0:02:16.68    \nframe=   64 fps=0.5 q=41.3 size=     256KiB time=00:00:01.03 bitrate=2029.8kbits/s speed=0.00753x elapsed=0:02:17.24    \nframe=   64 fps=0.5 q=41.3 size=     256KiB time=00:00:01.03 bitrate=2029.8kbits/s speed=0.0075x elapsed=0:02:17.84    \nframe=   64 fps=0.5 q=41.3 size=     256KiB time=00:00:01.03 bitrate=2029.8kbits/s speed=0.00746x elapsed=0:02:18.46    \nframe=   64 fps=0.5 q=41.3 size=     256KiB time=00:00:01.03 bitrate=2029.8kbits/s speed=0.00743x elapsed=0:02:19.07    \nframe=   64 fps=0.5 q=41.3 size=     256KiB time=00:00:01.03 bitrate=2029.8kbits/s speed=0.0074x elapsed=0:02:19.65    \nframe=   64 fps=0.5 q=41.3 size=     256KiB time=00:00:01.03 bitrate=2029.8kbits/s speed=0.00737x elapsed=0:02:20.24    \nframe=   64 fps=0.5 q=41.3 size=     256KiB time=00:00:01.03 bitrate=2029.8kbits/s speed=0.00733x elapsed=0:02:20.88    \nframe=   64 fps=0.5 q=41.3 size=     256KiB time=00:00:01.03 bitrate=2029.8kbits/s speed=0.0073x elapsed=0:02:21.55    \nframe=   64 fps=0.5 q=41.3 size=     256KiB time=00:00:01.03 bitrate=2029.8kbits/s speed=0.00727x elapsed=0:02:22.13    \nframe=   65 fps=0.5 q=43.0 size=     256KiB time=00:00:01.05 bitrate=1997.6kbits/s speed=0.00736x elapsed=0:02:22.70    \nframe=   65 fps=0.5 q=43.0 size=     256KiB time=00:00:01.05 bitrate=1997.6kbits/s speed=0.00732x elapsed=0:02:23.35    \nframe=   65 fps=0.5 q=43.0 size=     256KiB time=00:00:01.05 bitrate=1997.6kbits/s speed=0.0073x elapsed=0:02:23.92    \nframe=   65 fps=0.4 q=43.0 size=     256KiB time=00:00:01.05 bitrate=1997.6kbits/s speed=0.00726x elapsed=0:02:24.54    \nframe=   65 fps=0.4 q=43.0 size=     256KiB time=00:00:01.05 bitrate=1997.6kbits/s speed=0.00724x elapsed=0:02:25.11    \nframe=   65 fps=0.4 q=43.0 size=     256KiB time=00:00:01.05 bitrate=1997.6kbits/s speed=0.00721x elapsed=0:02:25.68    \nframe=   65 fps=0.4 q=43.0 size=     256KiB time=00:00:01.05 bitrate=1997.6kbits/s speed=0.00718x elapsed=0:02:26.21    \nframe=   66 fps=0.4 q=43.0 size=     256KiB time=00:00:01.06 bitrate=1966.4kbits/s speed=0.00727x elapsed=0:02:26.79    \nframe=   67 fps=0.5 q=36.5 size=     256KiB time=00:00:01.08 bitrate=1936.2kbits/s speed=0.00735x elapsed=0:02:27.35    \nframe=   67 fps=0.5 q=36.5 size=     256KiB time=00:00:01.08 bitrate=1936.2kbits/s speed=0.00732x elapsed=0:02:27.91    \nframe=   67 fps=0.5 q=36.5 size=     256KiB time=00:00:01.08 bitrate=1936.2kbits/s speed=0.0073x elapsed=0:02:28.47    \nframe=   67 fps=0.4 q=36.5 size=     256KiB time=00:00:01.08 bitrate=1936.2kbits/s speed=0.00727x elapsed=0:02:29.00    \nframe=   67 fps=0.4 q=36.5 size=     256KiB time=00:00:01.08 bitrate=1936.2kbits/s speed=0.00724x elapsed=0:02:29.56    \nframe=   67 fps=0.4 q=36.5 size=     256KiB time=00:00:01.08 bitrate=1936.2kbits/s speed=0.00722x elapsed=0:02:30.14    \nframe=   67 fps=0.4 q=36.5 size=     256KiB time=00:00:01.08 bitrate=1936.2kbits/s speed=0.00719x elapsed=0:02:30.68    \nframe=   67 fps=0.4 q=36.5 size=     256KiB time=00:00:01.08 bitrate=1936.2kbits/s speed=0.00716x elapsed=0:02:31.24    \nframe=   68 fps=0.4 q=41.3 size=     256KiB time=00:00:01.10 bitrate=1906.8kbits/s speed=0.00725x elapsed=0:02:31.75    \nframe=   69 fps=0.5 q=42.9 size=     512KiB time=00:00:01.11 bitrate=3756.4kbits/s speed=0.00733x elapsed=0:02:32.27    \nframe=   69 fps=0.5 q=42.9 size=     512KiB time=00:00:01.11 bitrate=3756.4kbits/s speed=0.00731x elapsed=0:02:32.82    \nframe=   69 fps=0.4 q=42.9 size=     512KiB time=00:00:01.11 bitrate=3756.4kbits/s speed=0.00728x elapsed=0:02:33.35    \nframe=   69 fps=0.4 q=42.9 size=     512KiB time=00:00:01.11 bitrate=3756.4kbits/s speed=0.00726x elapsed=0:02:33.87    \nframe=   70 fps=0.5 q=36.4 size=     512KiB time=00:00:01.13 bitrate=3701.2kbits/s speed=0.00734x elapsed=0:02:34.39    \nframe=   71 fps=0.5 q=41.0 size=     512KiB time=00:00:01.15 bitrate=3647.5kbits/s speed=0.00742x elapsed=0:02:34.98    \nframe=   71 fps=0.5 q=41.0 size=     512KiB time=00:00:01.15 bitrate=3647.5kbits/s speed=0.00739x elapsed=0:02:35.54    \nframe=   72 fps=0.5 q=42.1 size=     512KiB time=00:00:01.16 bitrate=3595.4kbits/s speed=0.00747x elapsed=0:02:36.07    \nframe=   73 fps=0.5 q=42.0 size=     512KiB time=00:00:01.18 bitrate=3544.8kbits/s speed=0.00755x elapsed=0:02:36.63    \nframe=   73 fps=0.5 q=42.0 size=     512KiB time=00:00:01.18 bitrate=3544.8kbits/s speed=0.00753x elapsed=0:02:37.19    \nframe=   73 fps=0.5 q=42.0 size=     512KiB time=00:00:01.18 bitrate=3544.8kbits/s speed=0.0075x elapsed=0:02:37.78    \nframe=   74 fps=0.5 q=35.9 size=     512KiB time=00:00:01.20 bitrate=3495.5kbits/s speed=0.00758x elapsed=0:02:38.34    \nframe=   75 fps=0.5 q=40.9 size=     512KiB time=00:00:01.21 bitrate=3447.7kbits/s speed=0.00766x elapsed=0:02:38.88    \nframe=   75 fps=0.5 q=40.9 size=     512KiB time=00:00:01.21 bitrate=3447.7kbits/s speed=0.00763x elapsed=0:02:39.39    \nframe=   75 fps=0.5 q=40.9 size=     512KiB time=00:00:01.21 bitrate=3447.7kbits/s speed=0.00761x elapsed=0:02:39.96    \nframe=   75 fps=0.5 q=40.9 size=     512KiB time=00:00:01.21 bitrate=3447.7kbits/s speed=0.00758x elapsed=0:02:40.52    \nframe=   75 fps=0.5 q=40.9 size=     512KiB time=00:00:01.21 bitrate=3447.7kbits/s speed=0.00755x elapsed=0:02:41.08    \nframe=   75 fps=0.5 q=40.9 size=     512KiB time=00:00:01.21 bitrate=3447.7kbits/s speed=0.00753x elapsed=0:02:41.62    \nframe=   75 fps=0.5 q=40.9 size=     512KiB time=00:00:01.21 bitrate=3447.7kbits/s speed=0.0075x elapsed=0:02:42.14    \nframe=   75 fps=0.5 q=40.9 size=     512KiB time=00:00:01.21 bitrate=3447.7kbits/s speed=0.00748x elapsed=0:02:42.66    \nframe=   76 fps=0.5 q=42.0 size=     512KiB time=00:00:01.23 bitrate=3401.1kbits/s speed=0.00756x elapsed=0:02:43.19    \nframe=   76 fps=0.5 q=42.0 size=     512KiB time=00:00:01.23 bitrate=3401.1kbits/s speed=0.00753x elapsed=0:02:43.72    \nframe=   76 fps=0.5 q=42.0 size=     512KiB time=00:00:01.23 bitrate=3401.1kbits/s speed=0.00751x elapsed=0:02:44.26    \nframe=   78 fps=0.5 q=36.2 size=     512KiB time=00:00:01.26 bitrate=3311.6kbits/s speed=0.00769x elapsed=0:02:44.79    \nframe=   78 fps=0.5 q=36.2 size=     512KiB time=00:00:01.26 bitrate=3311.6kbits/s speed=0.00766x elapsed=0:02:45.36    \nframe=   78 fps=0.5 q=36.2 size=     512KiB time=00:00:01.26 bitrate=3311.6kbits/s speed=0.00764x elapsed=0:02:45.89    \nframe=   78 fps=0.5 q=36.2 size=     512KiB time=00:00:01.26 bitrate=3311.6kbits/s speed=0.00761x elapsed=0:02:46.43    \nframe=   78 fps=0.5 q=36.2 size=     512KiB time=00:00:01.26 bitrate=3311.6kbits/s speed=0.00759x elapsed=0:02:46.97    \nframe=   79 fps=0.5 q=41.2 size=     512KiB time=00:00:01.28 bitrate=3268.6kbits/s speed=0.00766x elapsed=0:02:47.52    \nframe=   80 fps=0.5 q=43.0 size=     512KiB time=00:00:01.30 bitrate=3226.7kbits/s speed=0.00774x elapsed=0:02:48.05    \nframe=   81 fps=0.5 q=36.2 size=     512KiB time=00:00:01.31 bitrate=3185.8kbits/s speed=0.00781x elapsed=0:02:48.60    \nframe=   82 fps=0.5 q=40.7 size=     512KiB time=00:00:01.33 bitrate=3146.0kbits/s speed=0.00788x elapsed=0:02:49.11    \nframe=   82 fps=0.5 q=40.7 size=     512KiB time=00:00:01.33 bitrate=3146.0kbits/s speed=0.00786x elapsed=0:02:49.67    \nframe=   82 fps=0.5 q=40.7 size=     512KiB time=00:00:01.33 bitrate=3146.0kbits/s speed=0.00783x elapsed=0:02:50.21    \nframe=   82 fps=0.5 q=40.7 size=     512KiB time=00:00:01.33 bitrate=3146.0kbits/s speed=0.00781x elapsed=0:02:50.73    \nframe=   82 fps=0.5 q=40.7 size=     512KiB time=00:00:01.33 bitrate=3146.0kbits/s speed=0.00778x elapsed=0:02:51.29    \nframe=   83 fps=0.5 q=42.0 size=     512KiB time=00:00:01.35 bitrate=3107.2kbits/s speed=0.00786x elapsed=0:02:51.83    \nframe=   84 fps=0.5 q=42.0 size=     512KiB time=00:00:01.36 bitrate=3069.3kbits/s speed=0.00793x elapsed=0:02:52.39    \nframe=   85 fps=0.5 q=36.1 size=     512KiB time=00:00:01.38 bitrate=3032.3kbits/s speed=0.008x elapsed=0:02:52.91    \nframe=   85 fps=0.5 q=36.1 size=     512KiB time=00:00:01.38 bitrate=3032.3kbits/s speed=0.00798x elapsed=0:02:53.43    \nframe=   86 fps=0.5 q=40.5 size=     512KiB time=00:00:01.40 bitrate=2996.2kbits/s speed=0.00805x elapsed=0:02:53.97    \nframe=   86 fps=0.5 q=40.5 size=     512KiB time=00:00:01.40 bitrate=2996.2kbits/s speed=0.00802x elapsed=0:02:54.52    \nframe=   86 fps=0.5 q=40.5 size=     512KiB time=00:00:01.40 bitrate=2996.2kbits/s speed=0.008x elapsed=0:02:55.04    \nframe=   86 fps=0.5 q=40.5 size=     512KiB time=00:00:01.40 bitrate=2996.2kbits/s speed=0.00797x elapsed=0:02:55.58    \nframe=   87 fps=0.5 q=42.0 size=     512KiB time=00:00:01.41 bitrate=2960.9kbits/s speed=0.00804x elapsed=0:02:56.11    \nframe=   87 fps=0.5 q=42.0 size=     512KiB time=00:00:01.41 bitrate=2960.9kbits/s speed=0.00802x elapsed=0:02:56.65    \nframe=   88 fps=0.5 q=41.1 size=     512KiB time=00:00:01.43 bitrate=2926.5kbits/s speed=0.00809x elapsed=0:02:57.20    \nframe=   89 fps=0.5 q=35.6 size=     512KiB time=00:00:01.45 bitrate=2892.9kbits/s speed=0.00816x elapsed=0:02:57.74    \nframe=   89 fps=0.5 q=35.6 size=     512KiB time=00:00:01.45 bitrate=2892.9kbits/s speed=0.00813x elapsed=0:02:58.29    \nframe=   89 fps=0.5 q=35.6 size=     512KiB time=00:00:01.45 bitrate=2892.9kbits/s speed=0.00811x elapsed=0:02:58.84    \nframe=   89 fps=0.5 q=35.6 size=     512KiB time=00:00:01.45 bitrate=2892.9kbits/s speed=0.00808x elapsed=0:02:59.38    \nframe=   89 fps=0.5 q=35.6 size=     512KiB time=00:00:01.45 bitrate=2892.9kbits/s speed=0.00806x elapsed=0:02:59.89    \nframe=   90 fps=0.5 q=40.1 size=     512KiB time=00:00:01.46 bitrate=2860.0kbits/s speed=0.00813x elapsed=0:03:00.42    \nframe=   90 fps=0.5 q=40.1 size=     512KiB time=00:00:01.46 bitrate=2860.0kbits/s speed=0.00811x elapsed=0:03:00.95    \nframe=   91 fps=0.5 q=41.9 size=     512KiB time=00:00:01.48 bitrate=2827.9kbits/s speed=0.00817x elapsed=0:03:01.48    \nframe=   91 fps=0.5 q=41.9 size=     512KiB time=00:00:01.48 bitrate=2827.9kbits/s speed=0.00815x elapsed=0:03:02.01    \nframe=   91 fps=0.5 q=41.9 size=     512KiB time=00:00:01.48 bitrate=2827.9kbits/s speed=0.00813x elapsed=0:03:02.55    \nframe=   92 fps=0.5 q=35.5 size=     512KiB time=00:00:01.50 bitrate=2796.4kbits/s speed=0.00819x elapsed=0:03:03.06    \nframe=   92 fps=0.5 q=35.5 size=     512KiB time=00:00:01.50 bitrate=2796.4kbits/s speed=0.00817x elapsed=0:03:03.62    \nframe=   93 fps=0.5 q=40.1 size=     512KiB time=00:00:01.51 bitrate=2765.7kbits/s speed=0.00824x elapsed=0:03:04.15    \nframe=   93 fps=0.5 q=40.1 size=     512KiB time=00:00:01.51 bitrate=2765.7kbits/s speed=0.00821x elapsed=0:03:04.67    \nframe=   93 fps=0.5 q=40.1 size=     512KiB time=00:00:01.51 bitrate=2765.7kbits/s speed=0.00819x elapsed=0:03:05.24    \nframe=   93 fps=0.5 q=40.1 size=     512KiB time=00:00:01.51 bitrate=2765.7kbits/s speed=0.00816x elapsed=0:03:05.80    \nframe=   93 fps=0.5 q=40.1 size=     512KiB time=00:00:01.51 bitrate=2765.7kbits/s speed=0.00814x elapsed=0:03:06.37    \nframe=   93 fps=0.5 q=40.1 size=     512KiB time=00:00:01.51 bitrate=2765.7kbits/s speed=0.00811x elapsed=0:03:06.92    \nframe=   93 fps=0.5 q=40.1 size=     512KiB time=00:00:01.51 bitrate=2765.7kbits/s speed=0.00809x elapsed=0:03:07.49    \nframe=   94 fps=0.5 q=42.0 size=     512KiB time=00:00:01.53 bitrate=2735.6kbits/s speed=0.00815x elapsed=0:03:08.11    \nframe=   94 fps=0.5 q=42.0 size=     512KiB time=00:00:01.53 bitrate=2735.6kbits/s speed=0.00813x elapsed=0:03:08.68    \nframe=   95 fps=0.5 q=41.9 size=     512KiB time=00:00:01.55 bitrate=2706.2kbits/s speed=0.00819x elapsed=0:03:09.23    \nframe=   95 fps=0.5 q=41.9 size=     512KiB time=00:00:01.55 bitrate=2706.2kbits/s speed=0.00817x elapsed=0:03:09.74    \nframe=   96 fps=0.5 q=35.6 size=     512KiB time=00:00:01.56 bitrate=2677.4kbits/s speed=0.00823x elapsed=0:03:10.26    \nframe=   96 fps=0.5 q=35.6 size=     512KiB time=00:00:01.56 bitrate=2677.4kbits/s speed=0.00821x elapsed=0:03:10.79    \nframe=   97 fps=0.5 q=40.0 size=     512KiB time=00:00:01.58 bitrate=2649.3kbits/s speed=0.00828x elapsed=0:03:11.31    \nframe=   97 fps=0.5 q=40.0 size=     512KiB time=00:00:01.58 bitrate=2649.3kbits/s speed=0.00825x elapsed=0:03:11.88    \nframe=   98 fps=0.5 q=42.0 size=     512KiB time=00:00:01.60 bitrate=2621.7kbits/s speed=0.00832x elapsed=0:03:12.40    \nframe=   98 fps=0.5 q=42.0 size=     512KiB time=00:00:01.60 bitrate=2621.7kbits/s speed=0.00829x elapsed=0:03:12.94    \nframe=   99 fps=0.5 q=41.0 size=     512KiB time=00:00:01.61 bitrate=2594.6kbits/s speed=0.00836x elapsed=0:03:13.47    \nframe=  100 fps=0.5 q=35.5 size=     512KiB time=00:00:01.63 bitrate=2568.2kbits/s speed=0.00842x elapsed=0:03:14.00    \nframe=  101 fps=0.5 q=40.1 size=     768KiB time=00:00:01.65 bitrate=3813.2kbits/s speed=0.00848x elapsed=0:03:14.52    \nframe=  101 fps=0.5 q=40.1 size=     768KiB time=00:00:01.65 bitrate=3813.2kbits/s speed=0.00846x elapsed=0:03:15.05    \nframe=  102 fps=0.5 q=41.1 size=     768KiB time=00:00:01.66 bitrate=3775.1kbits/s speed=0.00852x elapsed=0:03:15.58    \nframe=  103 fps=0.5 q=41.0 size=     768KiB time=00:00:01.68 bitrate=3737.7kbits/s speed=0.00858x elapsed=0:03:16.11    \nframe=  103 fps=0.5 q=41.0 size=     768KiB time=00:00:01.68 bitrate=3737.7kbits/s speed=0.00856x elapsed=0:03:16.62    \nframe=  104 fps=0.5 q=35.3 size=     768KiB time=00:00:01.70 bitrate=3701.1kbits/s speed=0.00862x elapsed=0:03:17.14    \nframe=  105 fps=0.5 q=40.1 size=     768KiB time=00:00:01.71 bitrate=3665.1kbits/s speed=0.00868x elapsed=0:03:17.66    \nframe=  105 fps=0.5 q=40.1 size=     768KiB time=00:00:01.71 bitrate=3665.1kbits/s speed=0.00866x elapsed=0:03:18.19    \nframe=  106 fps=0.5 q=41.1 size=     768KiB time=00:00:01.73 bitrate=3629.9kbits/s speed=0.00872x elapsed=0:03:18.71    \nframe=  107 fps=0.5 q=40.9 size=     768KiB time=00:00:01.75 bitrate=3595.3kbits/s speed=0.00878x elapsed=0:03:19.24    \nframe=  109 fps=0.5 q=40.2 size=     768KiB time=00:00:01.78 bitrate=3528.1kbits/s speed=0.00893x elapsed=0:03:19.76    \nframe=  109 fps=0.5 q=40.2 size=     768KiB time=00:00:01.78 bitrate=3528.1kbits/s speed=0.0089x elapsed=0:03:20.27    \nframe=  109 fps=0.5 q=40.2 size=     768KiB time=00:00:01.78 bitrate=3528.1kbits/s speed=0.00888x elapsed=0:03:20.80    \nframe=  111 fps=0.6 q=40.9 size=     768KiB time=00:00:01.81 bitrate=3463.4kbits/s speed=0.00902x elapsed=0:03:21.32    \nframe=  112 fps=0.6 q=35.2 size=     768KiB time=00:00:01.83 bitrate=3431.9kbits/s speed=0.00908x elapsed=0:03:21.84    \nframe=  113 fps=0.6 q=39.9 size=     768KiB time=00:00:01.85 bitrate=3401.0kbits/s speed=0.00914x elapsed=0:03:22.38    \nframe=  113 fps=0.6 q=39.9 size=     768KiB time=00:00:01.85 bitrate=3401.0kbits/s speed=0.00912x elapsed=0:03:22.90    \nframe=  113 fps=0.6 q=39.9 size=     768KiB time=00:00:01.85 bitrate=3401.0kbits/s speed=0.00909x elapsed=0:03:23.41    \nframe=  115 fps=0.6 q=41.0 size=     768KiB time=00:00:01.88 bitrate=3340.8kbits/s speed=0.00924x elapsed=0:03:23.93    \nframe=  116 fps=0.6 q=35.3 size=     768KiB time=00:00:01.90 bitrate=3311.5kbits/s speed=0.00929x elapsed=0:03:24.46    \nframe=  117 fps=0.6 q=41.0 size=     768KiB time=00:00:01.91 bitrate=3282.7kbits/s speed=0.00935x elapsed=0:03:24.98    \nframe=  118 fps=0.6 q=41.1 size=     768KiB time=00:00:01.93 bitrate=3254.4kbits/s speed=0.00941x elapsed=0:03:25.50    \nframe=  118 fps=0.6 q=41.1 size=     768KiB time=00:00:01.93 bitrate=3254.4kbits/s speed=0.00938x elapsed=0:03:26.06    \nframe=  118 fps=0.6 q=41.1 size=     768KiB time=00:00:01.93 bitrate=3254.4kbits/s speed=0.00936x elapsed=0:03:26.57    \nframe=  118 fps=0.6 q=41.1 size=     768KiB time=00:00:01.93 bitrate=3254.4kbits/s speed=0.00934x elapsed=0:03:27.09    \nframe=  118 fps=0.6 q=41.1 size=     768KiB time=00:00:01.93 bitrate=3254.4kbits/s speed=0.00931x elapsed=0:03:27.60    \nframe=  119 fps=0.6 q=40.9 size=     768KiB time=00:00:01.95 bitrate=3226.6kbits/s speed=0.00937x elapsed=0:03:28.13    \nframe=  120 fps=0.6 q=41.0 size=     768KiB time=00:00:01.96 bitrate=3199.2kbits/s speed=0.00943x elapsed=0:03:28.64    \nframe=  122 fps=0.6 q=40.1 size=     768KiB time=00:00:02.00 bitrate=3145.9kbits/s speed=0.00956x elapsed=0:03:29.17    \nframe=  122 fps=0.6 q=40.1 size=     768KiB time=00:00:02.00 bitrate=3145.9kbits/s speed=0.00954x elapsed=0:03:29.70    \nframe=  122 fps=0.6 q=40.1 size=     768KiB time=00:00:02.00 bitrate=3145.9kbits/s speed=0.00951x elapsed=0:03:30.23    \nframe=  122 fps=0.6 q=40.1 size=     768KiB time=00:00:02.00 bitrate=3145.9kbits/s speed=0.00949x elapsed=0:03:30.75    \nframe=  123 fps=0.6 q=42.0 size=     768KiB time=00:00:02.01 bitrate=3119.9kbits/s speed=0.00955x elapsed=0:03:31.27    \nframe=  125 fps=0.6 q=35.3 size=     768KiB time=00:00:02.05 bitrate=3069.2kbits/s speed=0.00968x elapsed=0:03:31.78    \nframe=  125 fps=0.6 q=35.3 size=     768KiB time=00:00:02.05 bitrate=3069.2kbits/s speed=0.00966x elapsed=0:03:32.30    \nframe=  126 fps=0.6 q=39.7 size=     768KiB time=00:00:02.06 bitrate=3044.4kbits/s speed=0.00971x elapsed=0:03:32.83    \nframe=  126 fps=0.6 q=39.7 size=     768KiB time=00:00:02.06 bitrate=3044.4kbits/s speed=0.00969x elapsed=0:03:33.36    \nframe=  127 fps=0.6 q=41.0 size=     768KiB time=00:00:02.08 bitrate=3020.1kbits/s speed=0.00974x elapsed=0:03:33.88    \nframe=  128 fps=0.6 q=41.0 size=     768KiB time=00:00:02.10 bitrate=2996.1kbits/s speed=0.00979x elapsed=0:03:34.41    \nframe=  129 fps=0.6 q=35.3 size=     768KiB time=00:00:02.11 bitrate=2972.5kbits/s speed=0.00985x elapsed=0:03:34.94    \nframe=  129 fps=0.6 q=35.3 size=     768KiB time=00:00:02.11 bitrate=2972.5kbits/s speed=0.00982x elapsed=0:03:35.45    \nframe=  130 fps=0.6 q=39.7 size=     768KiB time=00:00:02.13 bitrate=2949.3kbits/s speed=0.00988x elapsed=0:03:35.97    \nframe=  130 fps=0.6 q=39.7 size=     768KiB time=00:00:02.13 bitrate=2949.3kbits/s speed=0.00985x elapsed=0:03:36.53    \nframe=  130 fps=0.6 q=39.7 size=     768KiB time=00:00:02.13 bitrate=2949.3kbits/s speed=0.00983x elapsed=0:03:37.05    \nframe=  132 fps=0.6 q=41.0 size=     768KiB time=00:00:02.16 bitrate=2903.9kbits/s speed=0.00996x elapsed=0:03:37.57    \nframe=  132 fps=0.6 q=41.0 size=     768KiB time=00:00:02.16 bitrate=2903.9kbits/s speed=0.00994x elapsed=0:03:38.08    \nframe=  133 fps=0.6 q=35.1 size=     768KiB time=00:00:02.18 bitrate=2881.7kbits/s speed=0.00999x elapsed=0:03:38.60    \nframe=  133 fps=0.6 q=35.1 size=     768KiB time=00:00:02.18 bitrate=2881.7kbits/s speed=0.00996x elapsed=0:03:39.13    \nframe=  134 fps=0.6 q=39.5 size=     768KiB time=00:00:02.20 bitrate=2859.9kbits/s speed=0.01x elapsed=0:03:39.65    \nframe=  134 fps=0.6 q=39.5 size=     768KiB time=00:00:02.20 bitrate=2859.9kbits/s speed=0.00999x elapsed=0:03:40.16    \nframe=  135 fps=0.6 q=41.1 size=     768KiB time=00:00:02.21 bitrate=2838.4kbits/s speed=0.01x elapsed=0:03:40.68    \nframe=  136 fps=0.6 q=35.3 size=     768KiB time=00:00:02.23 bitrate=2817.2kbits/s speed=0.0101x elapsed=0:03:41.20    \nframe=  137 fps=0.6 q=39.6 size=    1024KiB time=00:00:02.25 bitrate=3728.4kbits/s speed=0.0101x elapsed=0:03:41.71    \nframe=  137 fps=0.6 q=39.6 size=    1024KiB time=00:00:02.25 bitrate=3728.4kbits/s speed=0.0101x elapsed=0:03:42.23    \nframe=  138 fps=0.6 q=41.1 size=    1024KiB time=00:00:02.26 bitrate=3701.0kbits/s speed=0.0102x elapsed=0:03:42.74    \nframe=  139 fps=0.6 q=41.0 size=    1024KiB time=00:00:02.28 bitrate=3674.0kbits/s speed=0.0102x elapsed=0:03:43.27    \nframe=  140 fps=0.6 q=35.3 size=    1024KiB time=00:00:02.30 bitrate=3647.4kbits/s speed=0.0103x elapsed=0:03:43.79    \nframe=  140 fps=0.6 q=35.3 size=    1024KiB time=00:00:02.30 bitrate=3647.4kbits/s speed=0.0103x elapsed=0:03:44.30    \nframe=  141 fps=0.6 q=39.5 size=    1024KiB time=00:00:02.31 bitrate=3621.1kbits/s speed=0.0103x elapsed=0:03:44.82    \nframe=  141 fps=0.6 q=39.5 size=    1024KiB time=00:00:02.31 bitrate=3621.1kbits/s speed=0.0103x elapsed=0:03:45.34    \nframe=  141 fps=0.6 q=39.5 size=    1024KiB time=00:00:02.31 bitrate=3621.1kbits/s speed=0.0103x elapsed=0:03:45.86    \nframe=  142 fps=0.6 q=41.1 size=    1024KiB time=00:00:02.33 bitrate=3595.3kbits/s speed=0.0103x elapsed=0:03:46.38    \nframe=  142 fps=0.6 q=41.1 size=    1024KiB time=00:00:02.33 bitrate=3595.3kbits/s speed=0.0103x elapsed=0:03:46.90    \nframe=  143 fps=0.6 q=41.0 size=    1024KiB time=00:00:02.35 bitrate=3569.8kbits/s speed=0.0103x elapsed=0:03:47.41    \nframe=  144 fps=0.6 q=35.0 size=    1024KiB time=00:00:02.36 bitrate=3544.6kbits/s speed=0.0104x elapsed=0:03:47.93    \nframe=  144 fps=0.6 q=35.0 size=    1024KiB time=00:00:02.36 bitrate=3544.6kbits/s speed=0.0104x elapsed=0:03:48.44    \nframe=  145 fps=0.6 q=39.6 size=    1024KiB time=00:00:02.38 bitrate=3519.8kbits/s speed=0.0104x elapsed=0:03:48.96    \nframe=  146 fps=0.6 q=41.1 size=    1024KiB time=00:00:02.40 bitrate=3495.4kbits/s speed=0.0105x elapsed=0:03:49.50    \nframe=  148 fps=0.6 q=34.9 size=    1024KiB time=00:00:02.43 bitrate=3447.5kbits/s speed=0.0106x elapsed=0:03:50.01    \nframe=  148 fps=0.6 q=34.9 size=    1024KiB time=00:00:02.43 bitrate=3447.5kbits/s speed=0.0106x elapsed=0:03:50.55    \nframe=  148 fps=0.6 q=34.9 size=    1024KiB time=00:00:02.43 bitrate=3447.5kbits/s speed=0.0105x elapsed=0:03:51.09    \nframe=  148 fps=0.6 q=34.9 size=    1024KiB time=00:00:02.43 bitrate=3447.5kbits/s speed=0.0105x elapsed=0:03:51.59    \nframe=  148 fps=0.6 q=34.9 size=    1024KiB time=00:00:02.43 bitrate=3447.5kbits/s speed=0.0105x elapsed=0:03:52.11    \nframe=  149 fps=0.6 q=39.4 size=    1024KiB time=00:00:02.45 bitrate=3424.1kbits/s speed=0.0105x elapsed=0:03:52.64    \nframe=  150 fps=0.6 q=41.0 size=    1024KiB time=00:00:02.46 bitrate=3400.9kbits/s speed=0.0106x elapsed=0:03:53.14    \nframe=  151 fps=0.6 q=34.9 size=    1024KiB time=00:00:02.48 bitrate=3378.1kbits/s speed=0.0106x elapsed=0:03:53.67    \nframe=  152 fps=0.6 q=39.2 size=    1024KiB time=00:00:02.50 bitrate=3355.6kbits/s speed=0.0107x elapsed=0:03:54.17    \nframe=  152 fps=0.6 q=39.2 size=    1024KiB time=00:00:02.50 bitrate=3355.6kbits/s speed=0.0107x elapsed=0:03:54.70    \nframe=  153 fps=0.7 q=40.9 size=    1024KiB time=00:00:02.51 bitrate=3333.4kbits/s speed=0.0107x elapsed=0:03:55.20    \nframe=  153 fps=0.6 q=40.9 size=    1024KiB time=00:00:02.51 bitrate=3333.4kbits/s speed=0.0107x elapsed=0:03:55.72    \nframe=  155 fps=0.7 q=35.0 size=    1024KiB time=00:00:02.55 bitrate=3289.8kbits/s speed=0.0108x elapsed=0:03:56.25    \nframe=  156 fps=0.7 q=39.5 size=    1024KiB time=00:00:02.56 bitrate=3268.4kbits/s speed=0.0108x elapsed=0:03:56.78    \nframe=  156 fps=0.7 q=39.5 size=    1024KiB time=00:00:02.56 bitrate=3268.4kbits/s speed=0.0108x elapsed=0:03:57.32    \nframe=  156 fps=0.7 q=39.5 size=    1024KiB time=00:00:02.56 bitrate=3268.4kbits/s speed=0.0108x elapsed=0:03:57.87    \nframe=  157 fps=0.7 q=41.1 size=    1024KiB time=00:00:02.58 bitrate=3247.3kbits/s speed=0.0108x elapsed=0:03:58.39    \nframe=  157 fps=0.7 q=41.1 size=    1024KiB time=00:00:02.58 bitrate=3247.3kbits/s speed=0.0108x elapsed=0:03:58.94    \nframe=  157 fps=0.7 q=41.1 size=    1024KiB time=00:00:02.58 bitrate=3247.3kbits/s speed=0.0108x elapsed=0:03:59.51    \nframe=  157 fps=0.7 q=41.1 size=    1024KiB time=00:00:02.58 bitrate=3247.3kbits/s speed=0.0108x elapsed=0:04:00.06    \nframe=  157 fps=0.7 q=41.1 size=    1024KiB time=00:00:02.58 bitrate=3247.3kbits/s speed=0.0107x elapsed=0:04:00.63    \nframe=  157 fps=0.7 q=41.1 size=    1024KiB time=00:00:02.58 bitrate=3247.3kbits/s speed=0.0107x elapsed=0:04:01.20    \nframe=  158 fps=0.7 q=41.1 size=    1024KiB time=00:00:02.60 bitrate=3226.5kbits/s speed=0.0108x elapsed=0:04:01.75    \nframe=  158 fps=0.7 q=41.1 size=    1024KiB time=00:00:02.60 bitrate=3226.5kbits/s speed=0.0107x elapsed=0:04:02.30    \nframe=  159 fps=0.7 q=34.8 size=    1024KiB time=00:00:02.61 bitrate=3206.0kbits/s speed=0.0108x elapsed=0:04:02.82    \nframe=  159 fps=0.7 q=34.8 size=    1024KiB time=00:00:02.61 bitrate=3206.0kbits/s speed=0.0108x elapsed=0:04:03.35    \nframe=  160 fps=0.7 q=39.8 size=    1024KiB time=00:00:02.63 bitrate=3185.7kbits/s speed=0.0108x elapsed=0:04:03.89    \nframe=  160 fps=0.7 q=39.8 size=    1024KiB time=00:00:02.63 bitrate=3185.7kbits/s speed=0.0108x elapsed=0:04:04.43    \nframe=  161 fps=0.7 q=41.1 size=    1024KiB time=00:00:02.65 bitrate=3165.6kbits/s speed=0.0108x elapsed=0:04:04.95    \nframe=  162 fps=0.7 q=41.0 size=    1024KiB time=00:00:02.66 bitrate=3145.9kbits/s speed=0.0109x elapsed=0:04:05.45    \nframe=  163 fps=0.7 q=34.8 size=    1024KiB time=00:00:02.68 bitrate=3126.3kbits/s speed=0.0109x elapsed=0:04:05.97    \nframe=  164 fps=0.7 q=39.1 size=    1024KiB time=00:00:02.70 bitrate=3107.0kbits/s speed=0.011x elapsed=0:04:06.50    \nframe=  164 fps=0.7 q=39.1 size=    1024KiB time=00:00:02.70 bitrate=3107.0kbits/s speed=0.0109x elapsed=0:04:07.01    \nframe=  165 fps=0.7 q=41.0 size=    1024KiB time=00:00:02.71 bitrate=3088.0kbits/s speed=0.011x elapsed=0:04:07.54    \nframe=  165 fps=0.7 q=41.0 size=    1024KiB time=00:00:02.71 bitrate=3088.0kbits/s speed=0.011x elapsed=0:04:08.06    \nframe=  166 fps=0.7 q=34.8 size=    1024KiB time=00:00:02.73 bitrate=3069.1kbits/s speed=0.011x elapsed=0:04:08.58    \nframe=  167 fps=0.7 q=39.4 size=    1280KiB time=00:00:02.75 bitrate=3813.1kbits/s speed=0.011x elapsed=0:04:09.09    \nframe=  168 fps=0.7 q=41.1 size=    1280KiB time=00:00:02.76 bitrate=3790.2kbits/s speed=0.0111x elapsed=0:04:09.61    \nframe=  168 fps=0.7 q=41.1 size=    1280KiB time=00:00:02.76 bitrate=3790.2kbits/s speed=0.0111x elapsed=0:04:10.13    \nframe=  170 fps=0.7 q=34.9 size=    1280KiB time=00:00:02.80 bitrate=3745.0kbits/s speed=0.0112x elapsed=0:04:10.65    \nframe=  171 fps=0.7 q=39.4 size=    1280KiB time=00:00:02.81 bitrate=3722.9kbits/s speed=0.0112x elapsed=0:04:11.17    \nframe=  171 fps=0.7 q=39.4 size=    1280KiB time=00:00:02.81 bitrate=3722.9kbits/s speed=0.0112x elapsed=0:04:11.73    \nframe=  171 fps=0.7 q=39.4 size=    1280KiB time=00:00:02.81 bitrate=3722.9kbits/s speed=0.0112x elapsed=0:04:12.26    \nframe=  173 fps=0.7 q=41.0 size=    1280KiB time=00:00:02.85 bitrate=3679.3kbits/s speed=0.0113x elapsed=0:04:12.76    \nframe=  174 fps=0.7 q=34.8 size=    1280KiB time=00:00:02.86 bitrate=3657.9kbits/s speed=0.0113x elapsed=0:04:13.29    \nframe=  174 fps=0.7 q=34.8 size=    1280KiB time=00:00:02.86 bitrate=3657.9kbits/s speed=0.0113x elapsed=0:04:13.82    \nframe=  174 fps=0.7 q=34.8 size=    1280KiB time=00:00:02.86 bitrate=3657.9kbits/s speed=0.0113x elapsed=0:04:14.33    \nframe=  174 fps=0.7 q=34.8 size=    1280KiB time=00:00:02.86 bitrate=3657.9kbits/s speed=0.0112x elapsed=0:04:14.85    \nframe=  174 fps=0.7 q=34.8 size=    1280KiB time=00:00:02.86 bitrate=3657.9kbits/s speed=0.0112x elapsed=0:04:15.38    \nframe=  175 fps=0.7 q=39.0 size=    1280KiB time=00:00:02.88 bitrate=3636.8kbits/s speed=0.0113x elapsed=0:04:15.89    \nframe=  178 fps=0.7 q=39.0 size=    1280KiB time=00:00:02.93 bitrate=3574.8kbits/s speed=0.0114x elapsed=0:04:16.42    \nframe=  178 fps=0.7 q=39.0 size=    1280KiB time=00:00:02.93 bitrate=3574.8kbits/s speed=0.0114x elapsed=0:04:16.92    \nframe=  180 fps=0.7 q=40.0 size=    1280KiB time=00:00:02.96 bitrate=3534.6kbits/s speed=0.0115x elapsed=0:04:17.44    \nframe=  181 fps=0.7 q=34.6 size=    1280KiB time=00:00:02.98 bitrate=3514.9kbits/s speed=0.0116x elapsed=0:04:17.96    \nframe=  181 fps=0.7 q=34.6 size=    1280KiB time=00:00:02.98 bitrate=3514.9kbits/s speed=0.0115x elapsed=0:04:18.47    \nframe=  182 fps=0.7 q=39.1 size=    1280KiB time=00:00:03.00 bitrate=3495.4kbits/s speed=0.0116x elapsed=0:04:18.99    \nframe=  183 fps=0.7 q=41.0 size=    1280KiB time=00:00:03.01 bitrate=3476.1kbits/s speed=0.0116x elapsed=0:04:19.50    \nframe=  184 fps=0.7 q=41.0 size=    1280KiB time=00:00:03.03 bitrate=3457.0kbits/s speed=0.0117x elapsed=0:04:20.03    \nframe=  185 fps=0.7 q=34.9 size=    1280KiB time=00:00:03.05 bitrate=3438.1kbits/s speed=0.0117x elapsed=0:04:20.56    \nframe=  185 fps=0.7 q=34.9 size=    1280KiB time=00:00:03.05 bitrate=3438.1kbits/s speed=0.0117x elapsed=0:04:21.06    \nframe=  186 fps=0.7 q=39.5 size=    1280KiB time=00:00:03.06 bitrate=3419.4kbits/s speed=0.0117x elapsed=0:04:21.59    \nframe=  186 fps=0.7 q=39.5 size=    1280KiB time=00:00:03.06 bitrate=3419.4kbits/s speed=0.0117x elapsed=0:04:22.12    \nframe=  187 fps=0.7 q=42.0 size=    1280KiB time=00:00:03.08 bitrate=3400.9kbits/s speed=0.0117x elapsed=0:04:22.64    \nframe=  188 fps=0.7 q=41.0 size=    1280KiB time=00:00:03.10 bitrate=3382.6kbits/s speed=0.0118x elapsed=0:04:23.17    \nframe=  189 fps=0.7 q=34.8 size=    1280KiB time=00:00:03.11 bitrate=3364.5kbits/s speed=0.0118x elapsed=0:04:23.67    \nframe=  189 fps=0.7 q=34.8 size=    1280KiB time=00:00:03.11 bitrate=3364.5kbits/s speed=0.0118x elapsed=0:04:24.20    \nframe=  190 fps=0.7 q=39.0 size=    1280KiB time=00:00:03.13 bitrate=3346.6kbits/s speed=0.0118x elapsed=0:04:24.73    \nframe=  192 fps=0.7 q=34.9 size=    1280KiB time=00:00:03.16 bitrate=3311.4kbits/s speed=0.0119x elapsed=0:04:25.24    \nframe=  192 fps=0.7 q=34.9 size=    1280KiB time=00:00:03.16 bitrate=3311.4kbits/s speed=0.0119x elapsed=0:04:25.76    \nframe=  192 fps=0.7 q=34.9 size=    1280KiB time=00:00:03.16 bitrate=3311.4kbits/s speed=0.0119x elapsed=0:04:26.27    \nframe=  193 fps=0.7 q=39.1 size=    1280KiB time=00:00:03.18 bitrate=3294.1kbits/s speed=0.0119x elapsed=0:04:26.78    \nframe=  193 fps=0.7 q=39.1 size=    1280KiB time=00:00:03.18 bitrate=3294.1kbits/s speed=0.0119x elapsed=0:04:27.31    \nframe=  194 fps=0.7 q=40.0 size=    1280KiB time=00:00:03.20 bitrate=3276.9kbits/s speed=0.0119x elapsed=0:04:27.84    \nframe=  195 fps=0.7 q=40.1 size=    1280KiB time=00:00:03.21 bitrate=3259.9kbits/s speed=0.012x elapsed=0:04:28.36    \nframe=  197 fps=0.7 q=39.7 size=    1536KiB time=00:00:03.25 bitrate=3871.8kbits/s speed=0.0121x elapsed=0:04:28.89    \nframe=  198 fps=0.7 q=41.1 size=    1536KiB time=00:00:03.26 bitrate=3852.0kbits/s speed=0.0121x elapsed=0:04:29.42    \nframe=  200 fps=0.7 q=34.5 size=    1536KiB time=00:00:03.28 bitrate=3832.5kbits/s speed=0.0122x elapsed=0:04:29.92    \nframe=  200 fps=0.7 q=34.5 size=    1536KiB time=00:00:03.30 bitrate=3813.1kbits/s speed=0.0122x elapsed=0:04:30.44    \nframe=  201 fps=0.7 q=39.9 size=    1536KiB time=00:00:03.31 bitrate=3793.9kbits/s speed=0.0122x elapsed=0:04:30.95    \nframe=  201 fps=0.7 q=39.9 size=    1536KiB time=00:00:03.31 bitrate=3793.9kbits/s speed=0.0122x elapsed=0:04:31.48    \nframe=  201 fps=0.7 q=39.9 size=    1536KiB time=00:00:03.31 bitrate=3793.9kbits/s speed=0.0122x elapsed=0:04:32.01    \nframe=  201 fps=0.7 q=39.9 size=    1536KiB time=00:00:03.31 bitrate=3793.9kbits/s speed=0.0122x elapsed=0:04:32.53    \nframe=  202 fps=0.7 q=41.0 size=    1536KiB time=00:00:03.33 bitrate=3775.0kbits/s speed=0.0122x elapsed=0:04:33.06    \nframe=  203 fps=0.7 q=41.0 size=    1536KiB time=00:00:03.35 bitrate=3756.2kbits/s speed=0.0122x elapsed=0:04:33.58    \nframe=  203 fps=0.7 q=41.0 size=    1536KiB time=00:00:03.35 bitrate=3756.2kbits/s speed=0.0122x elapsed=0:04:34.12    \nframe=  204 fps=0.7 q=34.7 size=    1536KiB time=00:00:03.36 bitrate=3737.6kbits/s speed=0.0123x elapsed=0:04:34.64    \nframe=  205 fps=0.7 q=39.7 size=    1536KiB time=00:00:03.38 bitrate=3719.2kbits/s speed=0.0123x elapsed=0:04:35.17    \nframe=  205 fps=0.7 q=39.7 size=    1536KiB time=00:00:03.38 bitrate=3719.2kbits/s speed=0.0123x elapsed=0:04:35.70    \nframe=  205 fps=0.7 q=39.7 size=    1536KiB time=00:00:03.38 bitrate=3719.2kbits/s speed=0.0122x elapsed=0:04:36.22    \nframe=  205 fps=0.7 q=39.7 size=    1536KiB time=00:00:03.38 bitrate=3719.2kbits/s speed=0.0122x elapsed=0:04:36.74    \nframe=  206 fps=0.7 q=41.0 size=    1536KiB time=00:00:03.40 bitrate=3701.0kbits/s speed=0.0123x elapsed=0:04:37.27    \nframe=  207 fps=0.7 q=40.9 size=    1536KiB time=00:00:03.41 bitrate=3682.9kbits/s speed=0.0123x elapsed=0:04:37.81    \nframe=  208 fps=0.7 q=34.7 size=    1536KiB time=00:00:03.43 bitrate=3665.0kbits/s speed=0.0123x elapsed=0:04:38.35    \nframe=  209 fps=0.7 q=39.3 size=    1536KiB time=00:00:03.45 bitrate=3647.3kbits/s speed=0.0124x elapsed=0:04:38.87    \nframe=  209 fps=0.7 q=39.3 size=    1536KiB time=00:00:03.45 bitrate=3647.3kbits/s speed=0.0123x elapsed=0:04:39.40    \nframe=  209 fps=0.7 q=39.3 size=    1536KiB time=00:00:03.45 bitrate=3647.3kbits/s speed=0.0123x elapsed=0:04:39.92    \nframe=  211 fps=0.8 q=40.1 size=    1536KiB time=00:00:03.48 bitrate=3612.4kbits/s speed=0.0124x elapsed=0:04:40.47    \nframe=  211 fps=0.8 q=40.1 size=    1536KiB time=00:00:03.48 bitrate=3612.4kbits/s speed=0.0124x elapsed=0:04:40.99    \nframe=  211 fps=0.7 q=40.1 size=    1536KiB time=00:00:03.48 bitrate=3612.4kbits/s speed=0.0124x elapsed=0:04:41.51    \nframe=  211 fps=0.7 q=40.1 size=    1536KiB time=00:00:03.48 bitrate=3612.4kbits/s speed=0.0124x elapsed=0:04:42.04    \nframe=  213 fps=0.8 q=41.0 size=    1536KiB time=00:00:03.51 bitrate=3578.2kbits/s speed=0.0124x elapsed=0:04:42.57    \nframe=  213 fps=0.8 q=41.0 size=    1536KiB time=00:00:03.51 bitrate=3578.2kbits/s speed=0.0124x elapsed=0:04:43.09    \nframe=  214 fps=0.8 q=34.6 size=    1536KiB time=00:00:03.53 bitrate=3561.3kbits/s speed=0.0125x elapsed=0:04:43.62    \nframe=  214 fps=0.8 q=34.6 size=    1536KiB time=00:00:03.53 bitrate=3561.3kbits/s speed=0.0124x elapsed=0:04:44.13    \nframe=  214 fps=0.8 q=34.6 size=    1536KiB time=00:00:03.53 bitrate=3561.3kbits/s speed=0.0124x elapsed=0:04:44.67    \nframe=  214 fps=0.8 q=34.6 size=    1536KiB time=00:00:03.53 bitrate=3561.3kbits/s speed=0.0124x elapsed=0:04:45.23    \nframe=  215 fps=0.8 q=38.8 size=    1536KiB time=00:00:03.55 bitrate=3544.6kbits/s speed=0.0124x elapsed=0:04:45.80    \nframe=  215 fps=0.8 q=38.8 size=    1536KiB time=00:00:03.55 bitrate=3544.6kbits/s speed=0.0124x elapsed=0:04:46.45    \nframe=  215 fps=0.7 q=38.8 size=    1536KiB time=00:00:03.55 bitrate=3544.6kbits/s speed=0.0124x elapsed=0:04:46.96    \nframe=  215 fps=0.7 q=38.8 size=    1536KiB time=00:00:03.55 bitrate=3544.6kbits/s speed=0.0123x elapsed=0:04:47.48    \nframe=  216 fps=0.8 q=40.0 size=    1536KiB time=00:00:03.56 bitrate=3528.0kbits/s speed=0.0124x elapsed=0:04:47.99    \nframe=  217 fps=0.8 q=40.0 size=    1536KiB time=00:00:03.58 bitrate=3511.6kbits/s speed=0.0124x elapsed=0:04:48.55    \nframe=  217 fps=0.8 q=40.0 size=    1536KiB time=00:00:03.58 bitrate=3511.6kbits/s speed=0.0124x elapsed=0:04:49.12    \nframe=  218 fps=0.8 q=34.4 size=    1536KiB time=00:00:03.60 bitrate=3495.4kbits/s speed=0.0124x elapsed=0:04:49.69    \nframe=  219 fps=0.8 q=39.2 size=    1536KiB time=00:00:03.61 bitrate=3479.2kbits/s speed=0.0125x elapsed=0:04:50.26    \nframe=  219 fps=0.8 q=39.2 size=    1536KiB time=00:00:03.61 bitrate=3479.2kbits/s speed=0.0124x elapsed=0:04:50.78    \nframe=  219 fps=0.8 q=39.2 size=    1536KiB time=00:00:03.61 bitrate=3479.2kbits/s speed=0.0124x elapsed=0:04:51.29    \nframe=  219 fps=0.8 q=39.2 size=    1536KiB time=00:00:03.61 bitrate=3479.2kbits/s speed=0.0124x elapsed=0:04:51.86    \nframe=  220 fps=0.8 q=40.1 size=    1536KiB time=00:00:03.63 bitrate=3463.3kbits/s speed=0.0124x elapsed=0:04:52.41    \nframe=  221 fps=0.8 q=40.2 size=    1536KiB time=00:00:03.65 bitrate=3447.5kbits/s speed=0.0125x elapsed=0:04:52.95    \nframe=  222 fps=0.8 q=34.5 size=    1536KiB time=00:00:03.65 bitrate=3447.5kbits/s speed=0.0124x elapsed=0:04:53.51    \nframe=  222 fps=0.8 q=34.5 size=    1536KiB time=00:00:03.66 bitrate=3431.8kbits/s speed=0.0125x elapsed=0:04:54.05    \nframe=  222 fps=0.8 q=34.5 size=    1536KiB time=00:00:03.66 bitrate=3431.8kbits/s speed=0.0124x elapsed=0:04:54.57    \nframe=  222 fps=0.8 q=34.5 size=    1536KiB time=00:00:03.66 bitrate=3431.8kbits/s speed=0.0124x elapsed=0:04:55.09    \nframe=  223 fps=0.8 q=39.0 size=    1536KiB time=00:00:03.68 bitrate=3416.3kbits/s speed=0.0125x elapsed=0:04:55.61    \nframe=  223 fps=0.8 q=39.0 size=    1536KiB time=00:00:03.68 bitrate=3416.3kbits/s speed=0.0124x elapsed=0:04:56.16    \nframe=  223 fps=0.8 q=39.0 size=    1536KiB time=00:00:03.68 bitrate=3416.3kbits/s speed=0.0124x elapsed=0:04:56.68    \nframe=  223 fps=0.8 q=39.0 size=    1536KiB time=00:00:03.68 bitrate=3416.3kbits/s speed=0.0124x elapsed=0:04:57.21    \nframe=  224 fps=0.8 q=41.0 size=    1536KiB time=00:00:03.70 bitrate=3400.9kbits/s speed=0.0124x elapsed=0:04:57.73    \nframe=  224 fps=0.8 q=41.0 size=    1536KiB time=00:00:03.70 bitrate=3400.9kbits/s speed=0.0124x elapsed=0:04:58.28    \nframe=  225 fps=0.8 q=40.1 size=    1536KiB time=00:00:03.71 bitrate=3385.6kbits/s speed=0.0124x elapsed=0:04:58.80    \nframe=  227 fps=0.8 q=39.1 size=    1536KiB time=00:00:03.75 bitrate=3355.5kbits/s speed=0.0125x elapsed=0:04:59.35    \nframe=  227 fps=0.8 q=39.1 size=    1536KiB time=00:00:03.75 bitrate=3355.5kbits/s speed=0.0125x elapsed=0:04:59.88    \nframe=  227 fps=0.8 q=39.1 size=    1536KiB time=00:00:03.75 bitrate=3355.5kbits/s speed=0.0125x elapsed=0:05:00.44    \nframe=  227 fps=0.8 q=39.1 size=    1536KiB time=00:00:03.75 bitrate=3355.5kbits/s speed=0.0125x elapsed=0:05:00.99    \nframe=  227 fps=0.8 q=39.1 size=    1536KiB time=00:00:03.75 bitrate=3355.5kbits/s speed=0.0124x elapsed=0:05:01.56    \nframe=  227 fps=0.8 q=39.1 size=    1536KiB time=00:00:03.75 bitrate=3355.5kbits/s speed=0.0124x elapsed=0:05:02.16    \nframe=  227 fps=0.7 q=39.1 size=    1536KiB time=00:00:03.75 bitrate=3355.5kbits/s speed=0.0124x elapsed=0:05:02.73    \nframe=  227 fps=0.7 q=39.1 size=    1536KiB time=00:00:03.75 bitrate=3355.5kbits/s speed=0.0124x elapsed=0:05:03.30    \nframe=  228 fps=0.8 q=40.1 size=    1536KiB time=00:00:03.76 bitrate=3340.7kbits/s speed=0.0124x elapsed=0:05:03.87    \nframe=  228 fps=0.7 q=40.1 size=    1536KiB time=00:00:03.76 bitrate=3340.7kbits/s speed=0.0124x elapsed=0:05:04.44    \nframe=  228 fps=0.7 q=40.1 size=    1536KiB time=00:00:03.76 bitrate=3340.7kbits/s speed=0.0123x elapsed=0:05:05.02    \nframe=  229 fps=0.7 q=40.1 size=    1536KiB time=00:00:03.78 bitrate=3326.0kbits/s speed=0.0124x elapsed=0:05:05.56    \nframe=  229 fps=0.7 q=40.1 size=    1536KiB time=00:00:03.78 bitrate=3326.0kbits/s speed=0.0124x elapsed=0:05:06.08    \nframe=  229 fps=0.7 q=40.1 size=    1536KiB time=00:00:03.78 bitrate=3326.0kbits/s speed=0.0123x elapsed=0:05:06.64    \nframe=  230 fps=0.7 q=35.2 size=    1536KiB time=00:00:03.80 bitrate=3311.4kbits/s speed=0.0124x elapsed=0:05:07.25    \nframe=  231 fps=0.8 q=41.5 size=    1792KiB time=00:00:03.81 bitrate=3846.4kbits/s speed=0.0124x elapsed=0:05:07.80    \nframe=  231 fps=0.7 q=41.5 size=    1792KiB time=00:00:03.81 bitrate=3846.4kbits/s speed=0.0124x elapsed=0:05:08.32    \nframe=  233 fps=0.8 q=42.9 size=    1792KiB time=00:00:03.85 bitrate=3813.1kbits/s speed=0.0125x elapsed=0:05:08.85    \nframe=  235 fps=0.8 q=41.2 size=    1792KiB time=00:00:03.88 bitrate=3780.4kbits/s speed=0.0126x elapsed=0:05:09.38    \nframe=  235 fps=0.8 q=41.2 size=    1792KiB time=00:00:03.88 bitrate=3780.4kbits/s speed=0.0125x elapsed=0:05:09.89    \nframe=  235 fps=0.8 q=41.2 size=    1792KiB time=00:00:03.88 bitrate=3780.4kbits/s speed=0.0125x elapsed=0:05:10.41    \nframe=  236 fps=0.8 q=43.0 size=    1792KiB time=00:00:03.90 bitrate=3764.2kbits/s speed=0.0125x elapsed=0:05:10.93    \nframe=  238 fps=0.8 q=34.9 size=    1792KiB time=00:00:03.93 bitrate=3732.3kbits/s speed=0.0126x elapsed=0:05:11.46    \nframe=  238 fps=0.8 q=34.9 size=    1792KiB time=00:00:03.93 bitrate=3732.3kbits/s speed=0.0126x elapsed=0:05:12.00    \nframe=  239 fps=0.8 q=40.9 size=    1792KiB time=00:00:03.95 bitrate=3716.6kbits/s speed=0.0126x elapsed=0:05:12.54    \nframe=  239 fps=0.8 q=40.9 size=    1792KiB time=00:00:03.95 bitrate=3716.6kbits/s speed=0.0126x elapsed=0:05:13.05    \nframe=  239 fps=0.8 q=40.9 size=    1792KiB time=00:00:03.95 bitrate=3716.6kbits/s speed=0.0126x elapsed=0:05:13.57    \nframe=  239 fps=0.8 q=40.9 size=    1792KiB time=00:00:03.95 bitrate=3716.6kbits/s speed=0.0126x elapsed=0:05:14.08    \nframe=  240 fps=0.8 q=43.0 size=    1792KiB time=00:00:03.96 bitrate=3700.9kbits/s speed=0.0126x elapsed=0:05:14.59    \nframe=  241 fps=0.8 q=43.0 size=    1792KiB time=00:00:03.98 bitrate=3685.5kbits/s speed=0.0126x elapsed=0:05:15.11    \nframe=  242 fps=0.8 q=34.8 size=    1792KiB time=00:00:04.00 bitrate=3670.1kbits/s speed=0.0127x elapsed=0:05:15.64    \nframe=  244 fps=0.8 q=42.1 size=    1792KiB time=00:00:04.03 bitrate=3639.8kbits/s speed=0.0128x elapsed=0:05:16.14    \nframe=  244 fps=0.8 q=42.1 size=    1792KiB time=00:00:04.03 bitrate=3639.8kbits/s speed=0.0127x elapsed=0:05:16.67    \nframe=  245 fps=0.8 q=42.1 size=    1792KiB time=00:00:04.05 bitrate=3624.8kbits/s speed=0.0128x elapsed=0:05:17.23    \nframe=  246 fps=0.8 q=42.0 size=    1792KiB time=00:00:04.06 bitrate=3609.9kbits/s speed=0.0128x elapsed=0:05:17.77    \nframe=  248 fps=0.8 q=39.9 size=    1792KiB time=00:00:04.10 bitrate=3580.6kbits/s speed=0.0129x elapsed=0:05:18.29    \nframe=  248 fps=0.8 q=39.9 size=    1792KiB time=00:00:04.10 bitrate=3580.6kbits/s speed=0.0129x elapsed=0:05:18.81    \nframe=  248 fps=0.8 q=39.9 size=    1792KiB time=00:00:04.10 bitrate=3580.6kbits/s speed=0.0128x elapsed=0:05:19.33    \nframe=  248 fps=0.8 q=39.9 size=    1792KiB time=00:00:04.10 bitrate=3580.6kbits/s speed=0.0128x elapsed=0:05:19.87    \nframe=  249 fps=0.8 q=42.0 size=    1792KiB time=00:00:04.11 bitrate=3566.1kbits/s speed=0.0128x elapsed=0:05:20.40    \nframe=  249 fps=0.8 q=42.0 size=    1792KiB time=00:00:04.11 bitrate=3566.1kbits/s speed=0.0128x elapsed=0:05:20.93    \nframe=  249 fps=0.8 q=42.0 size=    1792KiB time=00:00:04.11 bitrate=3566.1kbits/s speed=0.0128x elapsed=0:05:21.50    \nframe=  249 fps=0.8 q=42.0 size=    1792KiB time=00:00:04.11 bitrate=3566.1kbits/s speed=0.0128x elapsed=0:05:22.04    \nframe=  249 fps=0.8 q=42.0 size=    1792KiB time=00:00:04.11 bitrate=3566.1kbits/s speed=0.0128x elapsed=0:05:22.57    \nframe=  249 fps=0.8 q=42.0 size=    1792KiB time=00:00:04.11 bitrate=3566.1kbits/s speed=0.0127x elapsed=0:05:23.10    \nframe=  249 fps=0.8 q=42.0 size=    1792KiB time=00:00:04.11 bitrate=3566.1kbits/s speed=0.0127x elapsed=0:05:23.61    \nframe=  249 fps=0.8 q=42.0 size=    1792KiB time=00:00:04.11 bitrate=3566.1kbits/s speed=0.0127x elapsed=0:05:24.14    \nframe=  249 fps=0.8 q=42.0 size=    1792KiB time=00:00:04.11 bitrate=3566.1kbits/s speed=0.0127x elapsed=0:05:24.66    \nframe=  249 fps=0.8 q=42.0 size=    1792KiB time=00:00:04.11 bitrate=3566.1kbits/s speed=0.0127x elapsed=0:05:25.18    \nframe=  250 fps=0.8 q=42.0 size=    1792KiB time=00:00:04.13 bitrate=3551.7kbits/s speed=0.0127x elapsed=0:05:25.73    \nframe=  250 fps=0.8 q=42.0 size=    1792KiB time=00:00:04.13 bitrate=3551.7kbits/s speed=0.0127x elapsed=0:05:26.27    \nframe=  251 fps=0.8 q=33.0 size=    1792KiB time=00:00:04.15 bitrate=3537.4kbits/s speed=0.0127x elapsed=0:05:26.78    \nframe=  252 fps=0.8 q=35.2 size=    2048KiB time=00:00:04.16 bitrate=4026.6kbits/s speed=0.0127x elapsed=0:05:27.33    \nframe=  253 fps=0.8 q=41.4 size=    2048KiB time=00:00:04.18 bitrate=4010.6kbits/s speed=0.0128x elapsed=0:05:27.88    \nframe=  254 fps=0.8 q=43.1 size=    2048KiB time=00:00:04.20 bitrate=3994.7kbits/s speed=0.0128x elapsed=0:05:28.43    \nframe=  254 fps=0.8 q=43.1 size=    2048KiB time=00:00:04.20 bitrate=3994.7kbits/s speed=0.0128x elapsed=0:05:29.00    \nframe=  254 fps=0.8 q=43.1 size=    2048KiB time=00:00:04.20 bitrate=3994.7kbits/s speed=0.0127x elapsed=0:05:29.53    \nframe=  254 fps=0.8 q=43.1 size=    2048KiB time=00:00:04.20 bitrate=3994.7kbits/s speed=0.0127x elapsed=0:05:30.05    \nframe=  255 fps=0.8 q=43.0 size=    2048KiB time=00:00:04.21 bitrate=3978.9kbits/s speed=0.0128x elapsed=0:05:30.58    \nframe=  256 fps=0.8 q=35.1 size=    2048KiB time=00:00:04.23 bitrate=3963.2kbits/s speed=0.0128x elapsed=0:05:31.13    \nframe=  258 fps=0.8 q=43.1 size=    2048KiB time=00:00:04.26 bitrate=3932.2kbits/s speed=0.0129x elapsed=0:05:31.70    \nframe=  258 fps=0.8 q=43.1 size=    2048KiB time=00:00:04.26 bitrate=3932.2kbits/s speed=0.0128x elapsed=0:05:32.25    \nframe=  258 fps=0.8 q=43.1 size=    2048KiB time=00:00:04.26 bitrate=3932.2kbits/s speed=0.0128x elapsed=0:05:32.79    \nframe=  259 fps=0.8 q=44.0 size=    2048KiB time=00:00:04.28 bitrate=3916.9kbits/s speed=0.0129x elapsed=0:05:33.30    \nframe=  261 fps=0.8 q=37.3 size=    2048KiB time=00:00:04.31 bitrate=3886.7kbits/s speed=0.0129x elapsed=0:05:33.84    \nframe=  262 fps=0.8 q=43.9 size=    2048KiB time=00:00:04.33 bitrate=3871.7kbits/s speed=0.013x elapsed=0:05:34.40    \nframe=  262 fps=0.8 q=43.9 size=    2048KiB time=00:00:04.33 bitrate=3871.7kbits/s speed=0.0129x elapsed=0:05:34.97    \nframe=  263 fps=0.8 q=43.9 size=    2048KiB time=00:00:04.35 bitrate=3856.9kbits/s speed=0.013x elapsed=0:05:35.49    \nframe=  264 fps=0.8 q=44.0 size=    2048KiB time=00:00:04.36 bitrate=3842.2kbits/s speed=0.013x elapsed=0:05:36.03    \nframe=  264 fps=0.8 q=44.0 size=    2048KiB time=00:00:04.36 bitrate=3842.2kbits/s speed=0.013x elapsed=0:05:36.55    \nframe=  265 fps=0.8 q=35.4 size=    2048KiB time=00:00:04.38 bitrate=3827.6kbits/s speed=0.013x elapsed=0:05:37.11    \nframe=  266 fps=0.8 q=41.4 size=    2048KiB time=00:00:04.40 bitrate=3813.1kbits/s speed=0.013x elapsed=0:05:37.63    \nframe=  267 fps=0.8 q=43.0 size=    2048KiB time=00:00:04.41 bitrate=3798.7kbits/s speed=0.0131x elapsed=0:05:38.15    \nframe=  267 fps=0.8 q=43.0 size=    2048KiB time=00:00:04.41 bitrate=3798.7kbits/s speed=0.013x elapsed=0:05:38.71    \nframe=  267 fps=0.8 q=43.0 size=    2048KiB time=00:00:04.41 bitrate=3798.7kbits/s speed=0.013x elapsed=0:05:39.26    \nframe=  268 fps=0.8 q=43.0 size=    2048KiB time=00:00:04.43 bitrate=3784.4kbits/s speed=0.013x elapsed=0:05:39.79    \nframe=  269 fps=0.8 q=35.0 size=    2048KiB time=00:00:04.45 bitrate=3770.2kbits/s speed=0.0131x elapsed=0:05:40.31    \nframe=  269 fps=0.8 q=35.0 size=    2048KiB time=00:00:04.45 bitrate=3770.2kbits/s speed=0.0131x elapsed=0:05:40.84    \nframe=  269 fps=0.8 q=35.0 size=    2048KiB time=00:00:04.45 bitrate=3770.2kbits/s speed=0.013x elapsed=0:05:41.36    \nframe=  269 fps=0.8 q=35.0 size=    2048KiB time=00:00:04.45 bitrate=3770.2kbits/s speed=0.013x elapsed=0:05:41.88    \nframe=  269 fps=0.8 q=35.0 size=    2048KiB time=00:00:04.45 bitrate=3770.2kbits/s speed=0.013x elapsed=0:05:42.45    \nframe=  270 fps=0.8 q=41.1 size=    2048KiB time=00:00:04.46 bitrate=3756.2kbits/s speed=0.013x elapsed=0:05:43.00    \nframe=  270 fps=0.8 q=41.1 size=    2048KiB time=00:00:04.46 bitrate=3756.2kbits/s speed=0.013x elapsed=0:05:43.56    \nframe=  270 fps=0.8 q=41.1 size=    2048KiB time=00:00:04.46 bitrate=3756.2kbits/s speed=0.013x elapsed=0:05:44.08    \nframe=  270 fps=0.8 q=41.1 size=    2048KiB time=00:00:04.46 bitrate=3756.2kbits/s speed=0.013x elapsed=0:05:44.61    \nframe=  270 fps=0.8 q=41.1 size=    2048KiB time=00:00:04.46 bitrate=3756.2kbits/s speed=0.0129x elapsed=0:05:45.16    \nframe=  270 fps=0.8 q=41.1 size=    2048KiB time=00:00:04.46 bitrate=3756.2kbits/s speed=0.0129x elapsed=0:05:45.72    \nframe=  271 fps=0.8 q=42.0 size=    2048KiB time=00:00:04.48 bitrate=3742.2kbits/s speed=0.0129x elapsed=0:05:46.25    \nframe=  272 fps=0.8 q=42.9 size=    2048KiB time=00:00:04.50 bitrate=3728.3kbits/s speed=0.013x elapsed=0:05:46.80    \nframe=  272 fps=0.8 q=42.9 size=    2048KiB time=00:00:04.50 bitrate=3728.3kbits/s speed=0.013x elapsed=0:05:47.34    \nframe=  272 fps=0.8 q=42.9 size=    2048KiB time=00:00:04.50 bitrate=3728.3kbits/s speed=0.0129x elapsed=0:05:47.86    \nframe=  273 fps=0.8 q=35.0 size=    2048KiB time=00:00:04.51 bitrate=3714.6kbits/s speed=0.013x elapsed=0:05:48.39    \nframe=  273 fps=0.8 q=35.0 size=    2048KiB time=00:00:04.51 bitrate=3714.6kbits/s speed=0.0129x elapsed=0:05:48.98    \nframe=  273 fps=0.8 q=35.0 size=    2048KiB time=00:00:04.51 bitrate=3714.6kbits/s speed=0.0129x elapsed=0:05:49.50    \nframe=  274 fps=0.8 q=41.0 size=    2048KiB time=00:00:04.53 bitrate=3700.9kbits/s speed=0.0129x elapsed=0:05:50.07    \nframe=  274 fps=0.8 q=41.0 size=    2048KiB time=00:00:04.53 bitrate=3700.9kbits/s speed=0.0129x elapsed=0:05:50.59    \nframe=  276 fps=0.8 q=42.0 size=    2048KiB time=00:00:04.56 bitrate=3673.9kbits/s speed=0.013x elapsed=0:05:51.12    \nframe=  276 fps=0.8 q=42.0 size=    2048KiB time=00:00:04.56 bitrate=3673.9kbits/s speed=0.013x elapsed=0:05:51.63    \nframe=  276 fps=0.8 q=42.0 size=    2048KiB time=00:00:04.56 bitrate=3673.9kbits/s speed=0.013x elapsed=0:05:52.15    \nframe=  276 fps=0.8 q=42.0 size=    2048KiB time=00:00:04.56 bitrate=3673.9kbits/s speed=0.0129x elapsed=0:05:52.68    \nframe=  276 fps=0.8 q=42.0 size=    2048KiB time=00:00:04.56 bitrate=3673.9kbits/s speed=0.0129x elapsed=0:05:53.21    \nframe=  276 fps=0.8 q=42.0 size=    2048KiB time=00:00:04.56 bitrate=3673.9kbits/s speed=0.0129x elapsed=0:05:53.75    \nframe=  278 fps=0.8 q=40.7 size=    2048KiB time=00:00:04.60 bitrate=3647.3kbits/s speed=0.013x elapsed=0:05:54.27    \nframe=  279 fps=0.8 q=41.9 size=    2048KiB time=00:00:04.61 bitrate=3634.1kbits/s speed=0.013x elapsed=0:05:54.79    \nframe=  279 fps=0.8 q=41.9 size=    2048KiB time=00:00:04.61 bitrate=3634.1kbits/s speed=0.013x elapsed=0:05:55.31    \nframe=  279 fps=0.8 q=41.9 size=    2048KiB time=00:00:04.61 bitrate=3634.1kbits/s speed=0.013x elapsed=0:05:55.86    \nframe=  279 fps=0.8 q=41.9 size=    2048KiB time=00:00:04.61 bitrate=3634.1kbits/s speed=0.013x elapsed=0:05:56.39    \nframe=  279 fps=0.8 q=41.9 size=    2048KiB time=00:00:04.61 bitrate=3634.1kbits/s speed=0.0129x elapsed=0:05:56.94    \nframe=  279 fps=0.8 q=41.9 size=    2048KiB time=00:00:04.61 bitrate=3634.1kbits/s speed=0.0129x elapsed=0:05:57.50    \nframe=  279 fps=0.8 q=41.9 size=    2048KiB time=00:00:04.61 bitrate=3634.1kbits/s speed=0.0129x elapsed=0:05:58.08    \nframe=  279 fps=0.8 q=41.9 size=    2048KiB time=00:00:04.61 bitrate=3634.1kbits/s speed=0.0129x elapsed=0:05:58.69    \nframe=  279 fps=0.8 q=41.9 size=    2048KiB time=00:00:04.61 bitrate=3634.1kbits/s speed=0.0128x elapsed=0:05:59.27    \nframe=  279 fps=0.8 q=41.9 size=    2048KiB time=00:00:04.61 bitrate=3634.1kbits/s speed=0.0128x elapsed=0:05:59.88    \nframe=  279 fps=0.8 q=41.9 size=    2048KiB time=00:00:04.61 bitrate=3634.1kbits/s speed=0.0128x elapsed=0:06:00.41    \nframe=  280 fps=0.8 q=41.9 size=    2048KiB time=00:00:04.63 bitrate=3621.1kbits/s speed=0.0128x elapsed=0:06:00.97    \nframe=  281 fps=0.8 q=35.1 size=    2048KiB time=00:00:04.65 bitrate=3608.1kbits/s speed=0.0129x elapsed=0:06:01.54    \nframe=  282 fps=0.8 q=40.4 size=    2048KiB time=00:00:04.66 bitrate=3595.2kbits/s speed=0.0129x elapsed=0:06:02.08    \nframe=  282 fps=0.8 q=40.4 size=    2048KiB time=00:00:04.66 bitrate=3595.2kbits/s speed=0.0129x elapsed=0:06:02.62    \nframe=  282 fps=0.8 q=40.4 size=    2048KiB time=00:00:04.66 bitrate=3595.2kbits/s speed=0.0129x elapsed=0:06:03.13    \nframe=  284 fps=0.8 q=41.0 size=    2048KiB time=00:00:04.70 bitrate=3569.7kbits/s speed=0.0129x elapsed=0:06:03.65    \nframe=  285 fps=0.8 q=35.1 size=    2048KiB time=00:00:04.71 bitrate=3557.1kbits/s speed=0.013x elapsed=0:06:04.16    \nframe=  286 fps=0.8 q=39.9 size=    2304KiB time=00:00:04.73 bitrate=3987.6kbits/s speed=0.013x elapsed=0:06:04.68    \nframe=  286 fps=0.8 q=39.9 size=    2304KiB time=00:00:04.73 bitrate=3987.6kbits/s speed=0.013x elapsed=0:06:05.24    \nframe=  286 fps=0.8 q=39.9 size=    2304KiB time=00:00:04.73 bitrate=3987.6kbits/s speed=0.0129x elapsed=0:06:05.75    \nframe=  287 fps=0.8 q=41.0 size=    2304KiB time=00:00:04.75 bitrate=3973.6kbits/s speed=0.013x elapsed=0:06:06.27    \nframe=  288 fps=0.8 q=40.1 size=    2304KiB time=00:00:04.76 bitrate=3959.7kbits/s speed=0.013x elapsed=0:06:06.80    \nframe=  289 fps=0.8 q=35.6 size=    2304KiB time=00:00:04.78 bitrate=3945.9kbits/s speed=0.013x elapsed=0:06:07.32    \nframe=  290 fps=0.8 q=38.8 size=    2304KiB time=00:00:04.80 bitrate=3932.2kbits/s speed=0.013x elapsed=0:06:07.84    \nframe=  290 fps=0.8 q=38.8 size=    2304KiB time=00:00:04.80 bitrate=3932.2kbits/s speed=0.013x elapsed=0:06:08.35    \nframe=  291 fps=0.8 q=40.0 size=    2304KiB time=00:00:04.81 bitrate=3918.6kbits/s speed=0.0131x elapsed=0:06:08.86    \nframe=  292 fps=0.8 q=38.9 size=    2304KiB time=00:00:04.83 bitrate=3905.1kbits/s speed=0.0131x elapsed=0:06:09.37    \nframe=  293 fps=0.8 q=35.8 size=    2304KiB time=00:00:04.85 bitrate=3891.7kbits/s speed=0.0131x elapsed=0:06:09.89    \nframe=  294 fps=0.8 q=37.4 size=    2304KiB time=00:00:04.86 bitrate=3878.4kbits/s speed=0.0131x elapsed=0:06:10.41    \nframe=  295 fps=0.8 q=38.0 size=    2304KiB time=00:00:04.88 bitrate=3865.1kbits/s speed=0.0132x elapsed=0:06:10.94    \nframe=  295 fps=0.8 q=38.0 size=    2304KiB time=00:00:04.88 bitrate=3865.1kbits/s speed=0.0131x elapsed=0:06:11.46    \nframe=  296 fps=0.8 q=36.9 size=    2304KiB time=00:00:04.90 bitrate=3852.0kbits/s speed=0.0132x elapsed=0:06:12.02    \nframe=  297 fps=0.8 q=35.5 size=    2304KiB time=00:00:04.91 bitrate=3838.9kbits/s speed=0.0132x elapsed=0:06:12.55    \nframe=  297 fps=0.8 q=35.5 size=    2304KiB time=00:00:04.91 bitrate=3838.9kbits/s speed=0.0132x elapsed=0:06:13.07    \n[mp4 @ 0000026ba5ebf140] Starting second pass: moving the moov atom to the beginning of the file\n[out#0/mp4 @ 0000026ba5ebf040] video:2409KiB audio:0KiB subtitle:0KiB other streams:0KiB global headers:2KiB muxing overhead: 0.294838%\nframe=  300 fps=0.8 q=34.5 Lsize=    2416KiB time=00:00:04.96 bitrate=3985.6kbits/s speed=0.0133x elapsed=0:06:13.19    \nx265 [info]: frame I:      2, Avg QP:35.47  kb/s: 71759.52\nx265 [info]: frame P:     77, Avg QP:35.88  kb/s: 12118.01\nx265 [info]: frame B:    221, Avg QP:41.63  kb/s: 484.32  \nx265 [info]: Weighted P-Frames: Y:0.0% UV:0.0%\n\nencoded 300 frames in 372.52s (0.81 fps), 3945.47 kb/s, Avg QP:40.11\n",
  "seconds": 373.73951506614685,
  "probe_out": {}
}